<?xml version="1.0" encoding="UTF-8"?>
<svg version="1.1" xmlns="http://www.w3.org/2000/svg" width="880" height="880">
<path d="M0 0 C1.94868484 0.00406357 1.94868484 0.00406357 3.93673706 0.00820923 C25.02548126 0.07458749 45.61418636 1.09731644 66.4375 4.4375 C67.61747559 4.61941895 68.79745117 4.80133789 70.01318359 4.98876953 C151.50910492 17.83117707 230.06504667 54.11386809 291.4375 109.4375 C292.30334717 110.21722168 293.16919434 110.99694336 294.0612793 111.80029297 C301.06039139 118.14049039 307.8525708 124.66624289 314.52954102 131.34423828 C316.12954519 132.94203893 317.73743615 134.53161551 319.34570312 136.12109375 C325.83017897 142.57085938 331.73985187 149.27079491 337.4375 156.4375 C338.36063439 157.52753468 339.29025708 158.61216065 340.23046875 159.6875 C358.74528767 180.95084832 373.90468807 204.76761579 387.4375 229.4375 C387.9310498 230.33275391 388.42459961 231.22800781 388.93310547 232.15039062 C414.07712894 278.06912142 430.95094488 329.43966644 437.4375 381.4375 C437.56138092 382.42477081 437.68526184 383.41204163 437.81289673 384.42922974 C440.07995299 402.9897225 440.96731373 421.30970682 440.875 440 C440.87229095 441.29912323 440.86958191 442.59824646 440.86679077 443.93673706 C440.80041251 465.02548126 439.77768356 485.61418636 436.4375 506.4375 C436.25558105 507.61747559 436.07366211 508.79745117 435.88623047 510.01318359 C423.04382293 591.50910492 386.76113191 670.06504667 331.4375 731.4375 C330.65777832 732.30334717 329.87805664 733.16919434 329.07470703 734.0612793 C322.73450961 741.06039139 316.20875711 747.8525708 309.53076172 754.52954102 C307.93296107 756.12954519 306.34338449 757.73743615 304.75390625 759.34570312 C298.30414062 765.83017897 291.60420509 771.73985187 284.4375 777.4375 C283.34746532 778.36063439 282.26283935 779.29025708 281.1875 780.23046875 C259.92415168 798.74528767 236.10738421 813.90468807 211.4375 827.4375 C210.54224609 827.9310498 209.64699219 828.42459961 208.72460938 828.93310547 C162.80587858 854.07712894 111.43533356 870.95094488 59.4375 877.4375 C58.45022919 877.56138092 57.46295837 877.68526184 56.44577026 877.81289673 C37.8852775 880.07995299 19.56529318 880.96731373 0.875 880.875 C-1.07368484 880.87093643 -1.07368484 880.87093643 -3.06173706 880.86679077 C-24.15048126 880.80041251 -44.73918636 879.77768356 -65.5625 876.4375 C-66.74247559 876.25558105 -67.92245117 876.07366211 -69.13818359 875.88623047 C-150.63410492 863.04382293 -229.19004667 826.76113191 -290.5625 771.4375 C-291.42834717 770.65777832 -292.29419434 769.87805664 -293.1862793 769.07470703 C-300.18539139 762.73450961 -306.9775708 756.20875711 -313.65454102 749.53076172 C-315.25454519 747.93296107 -316.86243615 746.34338449 -318.47070312 744.75390625 C-324.95517897 738.30414062 -330.86485187 731.60420509 -336.5625 724.4375 C-337.48563439 723.34746532 -338.41525708 722.26283935 -339.35546875 721.1875 C-357.87028767 699.92415168 -373.02968807 676.10738421 -386.5625 651.4375 C-387.30282471 650.09461914 -387.30282471 650.09461914 -388.05810547 648.72460938 C-413.20212894 602.80587858 -430.07594488 551.43533356 -436.5625 499.4375 C-436.68638092 498.45022919 -436.81026184 497.46295837 -436.93789673 496.44577026 C-439.20495299 477.8852775 -440.09231373 459.56529318 -440 440.875 C-439.99729095 439.57587677 -439.99458191 438.27675354 -439.99179077 436.93826294 C-439.92541251 415.84951874 -438.90268356 395.26081364 -435.5625 374.4375 C-435.38058105 373.25752441 -435.19866211 372.07754883 -435.01123047 370.86181641 C-422.16882293 289.36589508 -385.88613191 210.80995333 -330.5625 149.4375 C-329.78277832 148.57165283 -329.00305664 147.70580566 -328.19970703 146.8137207 C-321.85950961 139.81460861 -315.33375711 133.0224292 -308.65576172 126.34545898 C-307.05796107 124.74545481 -305.46838449 123.13756385 -303.87890625 121.52929688 C-297.42914062 115.04482103 -290.72920509 109.13514813 -283.5625 103.4375 C-282.47246532 102.51436561 -281.38783935 101.58474292 -280.3125 100.64453125 C-259.04915168 82.12971233 -235.23238421 66.97031193 -210.5625 53.4375 C-209.66724609 52.9439502 -208.77199219 52.45040039 -207.84960938 51.94189453 C-161.93087858 26.79787106 -110.56033356 9.92405512 -58.5625 3.4375 C-57.57522919 3.31361908 -56.58795837 3.18973816 -55.57077026 3.06210327 C-37.0102775 0.79504701 -18.69029318 -0.09231373 0 0 Z " fill="#005E54" transform="translate(439.5625,-0.43750000000000006)"/>
<path d="M0 0 C0.31950678 2.62429844 0.6305068 5.24922841 0.9375 7.875 C1.02451172 8.58269531 1.11152344 9.29039062 1.20117188 10.01953125 C2.81673024 24.02103709 3.20478481 38.14835934 3.24023438 52.23217773 C3.25001444 54.56594543 3.28125886 56.89885547 3.3125 59.23242188 C3.37606976 68.51220892 2.56756699 77.23752972 0.73291016 86.33740234 C0.08512153 89.57461917 -0.42922765 92.79262527 -0.875 96.0625 C-4.10185969 115.03950817 -12.09306712 135.82299479 -22.91796875 151.73046875 C-24.19824839 153.96182125 -24.19824839 153.96182125 -23.8984375 156.52734375 C-20.87809598 164.8398489 -11.70997422 171.09580548 -5.08203125 176.58984375 C-2.48227872 178.76831442 -0.18042488 180.77301386 1.9375 183.4375 C3.80417915 185.75670743 5.61710538 187.45856392 7.875 189.375 C15.9229302 196.33295078 21.9612624 203.9596674 23.5625 214.8125 C23.11695788 221.03735993 20.86532486 227.08884985 19 233 C18.68804688 234.05058594 18.37609375 235.10117187 18.0546875 236.18359375 C10.73255321 259.84208648 -8.42877844 278.29708526 -25 296 C-25.57621094 296.63035156 -26.15242188 297.26070312 -26.74609375 297.91015625 C-35.35449882 306.9908429 -45.76133943 314.56415805 -57 320 C-58.18782205 317.6243559 -58.31460873 315.76974509 -58.578125 313.125 C-58.68769531 312.13886719 -58.79726563 311.15273438 -58.91015625 310.13671875 C-59.13319486 308.07809803 -59.34452806 306.0181685 -59.54296875 303.95703125 C-60.37459094 296.73406549 -62.37441346 291.27820901 -66 285 C-66.52207031 284.02804687 -67.04414062 283.05609375 -67.58203125 282.0546875 C-68.19111328 280.97574219 -68.19111328 280.97574219 -68.8125 279.875 C-69.23144531 279.12992188 -69.65039062 278.38484375 -70.08203125 277.6171875 C-70.38496094 277.08351563 -70.68789063 276.54984375 -71 276 C-74.70065017 276.55542045 -77.13102437 277.48030603 -80.1875 279.625 C-80.97125 280.16769531 -81.755 280.71039062 -82.5625 281.26953125 C-83.366875 281.84058594 -84.17125 282.41164063 -85 283 C-102.54323391 295.41657941 -120.18239984 305.66671215 -140 314 C-127.07082941 313.72003764 -117.39937414 308.40578998 -106.58422852 301.88085938 C-99.26240308 297.48301234 -91.68014612 293.72396783 -84 290 C-82.92878906 289.44570313 -81.85757812 288.89140625 -80.75390625 288.3203125 C-77.80819646 286.90804313 -75.23012254 286.3845384 -72 286 C-68.18943403 293.27617544 -66.91480797 300.15247883 -65.93432617 308.27661133 C-65.68560273 310.32814915 -65.41376046 312.3756752 -65.13867188 314.42382812 C-63.49788547 327.30112842 -63.49788547 327.30112842 -67.36328125 332.53125 C-67.83830078 333.17707031 -68.31332031 333.82289063 -68.80273438 334.48828125 C-69.55006836 335.48408203 -69.55006836 335.48408203 -70.3125 336.5 C-70.79912109 337.16386719 -71.28574219 337.82773437 -71.78710938 338.51171875 C-80.10092919 349.72362649 -93.82868572 358.89374458 -107.68359375 361.70703125 C-123.66708677 363.72855229 -139.7592023 357.95010614 -154.625 352.625 C-160.91900906 350.386318 -167.22446646 348.28659722 -173.625 346.375 C-178.85505878 344.80028987 -183.57874385 342.84868378 -188.37890625 340.2421875 C-191.65348113 338.69030253 -195.043501 337.67922792 -198.5 336.625 C-205.30970671 334.49749747 -210.41592415 331.37966733 -216 327 C-216.67160156 326.5978125 -217.34320312 326.195625 -218.03515625 325.78125 C-223.84200527 322.17938739 -226.60505021 317.10321745 -230.0144043 311.37597656 C-234.55793588 303.84370803 -240.03217341 297.43365381 -246 291 C-246.50370117 290.44715332 -247.00740234 289.89430664 -247.52636719 289.32470703 C-264.81687945 270.4929638 -287.05158152 256.62203562 -312 251 C-331.80220767 246.46105004 -349.181345 241.06880188 -366.99267578 231.11621094 C-368.63693499 230.20188923 -370.29864917 229.31902191 -371.96484375 228.4453125 C-381.3232858 223.31864571 -392.55798438 214.17719976 -397.23828125 204.41796875 C-398.36194957 199.37586732 -398.24784526 194.46090371 -398.1875 189.3125 C-398.18685547 188.28705078 -398.18621094 187.26160156 -398.18554688 186.20507812 C-398.05469763 163.19014948 -398.05469763 163.19014948 -392 157 C-389.44501209 155.91401748 -386.98963425 155.39723816 -384.26953125 154.84375 C-371.3707119 151.51502242 -359.28683215 142.81679961 -348 136 C-349.46668718 132.39274234 -351.33406965 130.7365212 -354.4375 128.4375 C-376.67212343 111.11181941 -386.77961876 88.15837508 -396.16357422 62.27880859 C-396.72280827 60.75519779 -397.29750006 59.23717513 -397.88720703 57.72509766 C-400 52.30543177 -400 52.30543177 -400 49 C-396.54313626 50.2553004 -393.8456598 51.66676421 -390.9609375 53.94140625 C-390.22101563 54.52075928 -389.48109375 55.1001123 -388.71875 55.69702148 C-387.9453125 56.31262939 -387.171875 56.9282373 -386.375 57.5625 C-385.57320313 58.19293213 -384.77140625 58.82336426 -383.9453125 59.47290039 C-379.5868313 62.91003733 -375.27505978 66.39740752 -371 69.9375 C-362.66360879 77.09147514 -362.66360879 77.09147514 -353 82 C-351.62291451 84.04467259 -350.42454856 86.03076356 -349.25 88.1875 C-348.89784424 88.81462891 -348.54568848 89.44175781 -348.18286133 90.08789062 C-345.83696171 94.31420426 -343.74394102 98.62448814 -341.6875 103 C-337.80660904 110.86738439 -332.67272194 117.34955636 -327 124 C-326.55108398 124.53931152 -326.10216797 125.07862305 -325.63964844 125.63427734 C-310.1747391 144.12542168 -286.91471363 156.05789813 -263 159 C-260.27883466 159.10112381 -257.58388407 159.1637266 -254.86328125 159.16796875 C-253.7222419 159.17296135 -253.7222419 159.17296135 -252.55815125 159.17805481 C-250.95552163 159.18309062 -249.35288166 159.18546418 -247.75024414 159.18530273 C-245.33656889 159.18747831 -242.92335963 159.20563962 -240.50976562 159.22460938 C-224.45116632 159.34761647 -224.45116632 159.34761647 -209.25 154.6875 C-208.35925781 154.254375 -207.46851563 153.82125 -206.55078125 153.375 C-203.44864915 151.70279403 -200.47818156 149.89066322 -197.55859375 147.91796875 C-196 147 -196 147 -194 147 C-193.70029297 146.08734375 -193.70029297 146.08734375 -193.39453125 145.15625 C-191.38872523 142.05483565 -189.14457282 141.69978501 -185.6875 140.5 C-177.06883642 137.17095043 -171.32843323 131.55919138 -165 125 C-164.22269531 124.23042969 -163.44539062 123.46085937 -162.64453125 122.66796875 C-154.79509272 114.50398077 -147.08302061 104.16604122 -142 94 C-123.56401834 93.61900382 -123.56401834 93.61900382 -116 96 C-114.33385595 96.52250277 -112.66716409 97.04326111 -111 97.5625 C-110.16210938 97.82417969 -109.32421875 98.08585937 -108.4609375 98.35546875 C-106.12601834 98.9669952 -104.02696604 99.22325124 -101.625 99.375 C-89.07277165 100.57356347 -76.87841818 109.1283208 -66 115 C-66.32234619 114.41154297 -66.64469238 113.82308594 -66.97680664 113.21679688 C-69.73349336 107.24430454 -68.81174103 98.29445959 -67.265625 92.01953125 C-66.02144121 88.89554804 -64.55823126 85.98155073 -63 83 C-62.18857322 81.3497102 -61.37882489 79.69859457 -60.5703125 78.046875 C-54.18137995 65.21932205 -47.31149685 54.07561294 -37 44 C-36.48695313 43.46632813 -35.97390625 42.93265625 -35.4453125 42.3828125 C-32.81673007 39.87866 -31.1749206 39.01908225 -27.5625 38.625 C-22.37879667 40.6257276 -19.79976572 44.29417908 -17 49 C-9.88995729 70.11873239 -18.76482012 103.1588662 -28.07958984 122.27734375 C-31.14693937 128.01825045 -35.40929117 132.46930044 -40 137 C-38.6975667 139.90542812 -37.29113732 141.8092961 -35 144 C-25.62036989 129.7644306 -17.86050596 114.6867664 -14 98 C-13.82629883 97.2682959 -13.65259766 96.5365918 -13.47363281 95.78271484 C-10.40007282 82.79383957 -8.77089998 70.70376003 -8.75 57.3125 C-8.74766357 56.62869263 -8.74532715 55.94488525 -8.74291992 55.24035645 C-8.73166705 46.47897018 -9.10991181 37.9185546 -10.5 29.25 C-10.6347876 28.40711426 -10.7695752 27.56422852 -10.90844727 26.69580078 C-11.16067286 25.14603381 -11.41452549 23.5965303 -11.67041016 22.04736328 C-13.44701152 11.01137882 -13.44701152 11.01137882 -10.27734375 6.60546875 C-3.90323993 0 -3.90323993 0 0 0 Z " fill="#000000" transform="translate(732,286)"/>
<path d="M0 0 C2.17494733 0.39894544 4.35973101 0.74398327 6.54638672 1.07275391 C19.26644433 3.28010473 31.06867068 11.17248039 38.67529297 21.49072266 C39.50029297 22.47298828 40.32529297 23.45525391 41.17529297 24.46728516 C48.68716353 33.45742191 54.32407871 43.09806395 59.67529297 53.49072266 C60.00513184 54.10995605 60.3349707 54.72918945 60.67480469 55.3671875 C66.56113694 66.45983139 69.76371835 78.23005733 73.03027344 90.29858398 C73.61017242 92.50760764 73.61017242 92.50760764 74.67529297 94.49072266 C74.92089001 97.27301082 75.1023402 100.03039451 75.23388672 102.81884766 C75.27613876 103.69414124 75.31839081 104.56943481 75.36192322 105.47125244 C75.90205265 118.05468741 75.78132676 130.64877902 75.73779297 143.24072266 C75.73276339 145.79931552 75.72820309 148.35790935 75.72412109 150.91650391 C75.71324142 157.10793171 75.69662094 163.29932248 75.67529297 169.49072266 C77.54991211 169.87381592 77.54991211 169.87381592 79.46240234 170.26464844 C97.08424879 173.8974157 97.08424879 173.8974157 105.17529297 176.36572266 C106.00061523 176.61402832 106.8259375 176.86233398 107.67626953 177.11816406 C114.17189198 179.15523009 119.93919736 181.78067917 125.67529297 185.49072266 C125.67529297 186.48072266 125.67529297 187.47072266 125.67529297 188.49072266 C126.33529297 188.49072266 126.99529297 188.49072266 127.67529297 188.49072266 C128.00529297 187.50072266 128.33529297 186.51072266 128.67529297 185.49072266 C129.35205078 184.83910156 129.35205078 184.83910156 130.04248047 184.17431641 C132.25933217 181.88851956 133.37063128 179.40257165 134.80029297 176.55322266 C138.87818073 168.65022967 143.47917519 161.0748891 148.11279297 153.49072266 C148.48866547 152.87515503 148.86453796 152.2595874 149.25180054 151.62536621 C151.08364836 148.62660616 152.91784301 145.62929225 154.75341797 142.6328125 C157.05710063 138.86650204 159.3430235 135.09004541 161.61279297 131.30322266 C162.28439453 130.18431641 162.95599609 129.06541016 163.64794922 127.91259766 C165.13044501 125.41035043 166.59555242 122.90180065 168.04638672 120.38134766 C176.0709849 106.47624825 184.42666412 93.04894679 195.67529297 81.49072266 C196.38814453 80.72759766 197.10099609 79.96447266 197.83544922 79.17822266 C202.10510055 74.70905491 205.17044191 71.85839777 211.54248047 71.18994141 C222.55527038 71.14703443 222.55527038 71.14703443 227.67529297 74.49072266 C229.73974005 76.94870497 231.16149931 79.66956174 232.67529297 82.49072266 C233.63831567 84.15996201 234.60156626 85.82907445 235.56884766 87.49584961 C236.96539765 89.91368394 238.33795366 92.3446967 239.70849609 94.77734375 C240.58275812 96.32673034 241.46452398 97.87187693 242.34716797 99.41650391 C252.81633509 118.06133503 255.30988905 135.23222234 254.74902344 156.35351562 C254.6695728 159.73411415 254.64297602 163.11321995 254.61669922 166.49462891 C254.39728394 182.38156703 252.65807678 197.11596522 248.67529297 212.49072266 C248.46807617 213.33860352 248.26085937 214.18648437 248.04736328 215.06005859 C242.62549099 236.9975228 231.99064785 258.00046172 218.55029297 276.11572266 C218.03853516 276.83373047 217.52677734 277.55173828 216.99951172 278.29150391 C216.49806641 278.96826172 215.99662109 279.64501953 215.47998047 280.34228516 C215.03638184 280.9489502 214.5927832 281.55561523 214.13574219 282.18066406 C212.67529297 283.49072266 212.67529297 283.49072266 208.67529297 283.49072266 C206.44975238 281.71490271 204.4544716 279.96650185 202.42529297 277.99072266 C201.87099609 277.46607422 201.31669922 276.94142578 200.74560547 276.40087891 C199.38042164 275.10630803 198.02671802 273.79965007 196.67529297 272.49072266 C199.74960319 268.72469264 202.69022593 265.40225421 206.48779297 262.36572266 C217.48777891 252.81144915 222.07608429 240.40094136 226.77734375 227.02099609 C227.82378042 224.07230941 228.93617329 221.15287304 230.06030273 218.2331543 C237.5879663 198.81862427 237.5879663 198.81862427 241.67529297 178.49072266 C241.83964844 177.17394531 241.83964844 177.17394531 242.00732422 175.83056641 C244.70742748 150.23358745 243.83653542 116.08638287 227.92529297 94.42822266 C225.41825179 91.73850763 224.62540016 91.47945654 220.80029297 90.61572266 C216.19567529 90.99575828 213.58729162 93.69875646 210.43701172 96.86181641 C208.67529297 98.49072266 208.67529297 98.49072266 205.67529297 99.49072266 C205.67529297 100.15072266 205.67529297 100.81072266 205.67529297 101.49072266 C204.10107422 102.85791016 204.10107422 102.85791016 201.98779297 104.36572266 C196.25830132 108.48750384 191.6785508 112.43374829 187.42529297 118.05322266 C186.45633488 119.31317932 185.48626882 120.57228463 184.51513672 121.83056641 C183.79753174 122.76231689 183.79753174 122.76231689 183.06542969 123.71289062 C181.09761963 126.22950335 179.04223127 128.66962367 176.98779297 131.11572266 C173.23029561 135.68078161 169.9307238 140.43390663 166.71044922 145.38916016 C164.94486415 148.07989824 163.124777 150.720977 161.26879883 153.34985352 C153.6607805 164.14890129 147.53365039 175.52391071 141.7265625 187.35595703 C139.89431626 191.07661684 138.03302334 194.78274103 136.17529297 198.49072266 C135.49808512 199.84482706 134.82098985 201.19898777 134.14404297 202.55322266 C133.65935547 203.52259766 133.17466797 204.49197266 132.67529297 205.49072266 C127.76990341 204.43339517 122.89692242 203.30976328 118.03857422 202.05322266 C103.35392534 198.24456684 103.35392534 198.24456684 88.38232422 195.91259766 C85.55360197 195.47175783 83.32142686 194.56061012 80.67529297 193.49072266 C78.58080128 193.0649916 76.47526086 192.69071772 74.36279297 192.36572266 C72.75984375 192.11435547 72.75984375 192.11435547 71.12451172 191.85791016 C70.31626953 191.73673828 69.50802734 191.61556641 68.67529297 191.49072266 C68.42908203 192.04373047 68.18287109 192.59673828 67.92919922 193.16650391 C63.76937815 200.87707566 57.02490317 207.32031085 50.78857422 213.37353516 C48.81127628 215.35448799 47.02515441 217.40169156 45.23779297 219.55322266 C29.82031831 237.36975516 0.8160864 252.46796495 -22.32470703 256.49072266 C-36.77519155 257.4832355 -51.09561627 257.99161606 -64.32470703 251.49072266 C-65.30721436 251.00804932 -65.30721436 251.00804932 -66.30957031 250.515625 C-75.54583319 245.88124398 -83.60631716 240.39296859 -91.32470703 233.49072266 C-92.26056641 232.68634766 -93.19642578 231.88197266 -94.16064453 231.05322266 C-105.1704271 221.40081054 -112.4813058 210.38123129 -119.99658203 197.94384766 C-122.0855685 194.48814362 -124.22875299 191.08703505 -126.46533203 187.72509766 C-137.93107453 170.2812324 -139.42587055 152.43684295 -140.21630859 131.96826172 C-140.31005615 129.82558107 -140.44985556 127.6850081 -140.59814453 125.54541016 C-141.74859553 99.74243774 -131.60786981 65.9660513 -114.32470703 46.49072266 C-110.87412579 42.86112449 -107.3138681 39.34250239 -103.71655273 35.85888672 C-102.44421925 34.60820143 -101.21215907 33.3168824 -99.98486328 32.02197266 C-96.52458131 28.72936955 -92.77271344 26.00851441 -88.88720703 23.24072266 C-88.09096924 22.6707959 -87.29473145 22.10086914 -86.47436523 21.51367188 C-79.56429339 16.60073462 -72.56803033 11.89707766 -65.32470703 7.49072266 C-63.76236328 6.518125 -63.76236328 6.518125 -62.16845703 5.52587891 C-42.06809606 -6.2407928 -22.01243928 -4.14109691 0 0 Z " fill="#000000" transform="translate(524.32470703125,177.50927734375)"/>
<path d="M0 0 C8.28614798 4.94898701 18.15829225 10.49199542 28.0078125 10.5078125 C28.80509766 10.51006836 29.60238281 10.51232422 30.42382812 10.51464844 C31.27396484 10.50981445 32.12410156 10.50498047 33 10.5 C33.88365234 10.49516602 34.76730469 10.49033203 35.67773438 10.48535156 C38.4104868 10.4609694 41.14253899 10.42148052 43.875 10.375 C44.7009668 10.36243164 45.52693359 10.34986328 46.37792969 10.33691406 C55.31934821 10.1583044 63.16497741 9.5445026 71.58984375 6.21484375 C73.875 5.375 73.875 5.375 76.875 5.375 C75.93082255 10.65837592 74.97632327 15.93436281 73.875 21.1875 C68.03051675 50.59255636 67.88783533 78.10774236 75.44775391 107.13696289 C75.91687066 109.5943305 75.94701168 111.87905326 75.875 114.375 C61.95696477 111.29635626 50.80959568 103.30959568 40.875 93.375 C39.885 92.715 38.895 92.055 37.875 91.375 C37.875 90.715 37.875 90.055 37.875 89.375 C37.15570313 89.11847656 36.43640625 88.86195313 35.6953125 88.59765625 C32.71086852 87.30384605 30.37056563 85.73184394 27.75 83.8125 C25.03999947 81.83148138 23.0711513 80.44038377 19.875 79.375 C19.875 78.715 19.875 78.055 19.875 77.375 C19.215 77.375 18.555 77.375 17.875 77.375 C18.32746094 78.82712891 18.32746094 78.82712891 18.7890625 80.30859375 C20.02504723 84.63454032 20.62766378 88.98940046 21.25 93.4375 C22.48197175 101.69370423 24.37113792 109.40293339 26.875 117.375 C27.15988281 118.41527344 27.44476563 119.45554687 27.73828125 120.52734375 C31.15495693 132.70395442 36.75465879 148.25465879 45.875 157.375 C46.45408817 158.83992106 46.98972556 160.32221251 47.5 161.8125 C50.18674277 168.80413744 54.58004083 175.08004083 59.875 180.375 C59.91796875 182.3046875 59.91796875 182.3046875 58.875 184.375 C56.61956309 185.62370547 54.57166365 186.58133144 52.1875 187.5 C50.96675781 187.99757813 49.74601562 188.49515625 48.48828125 189.0078125 C47.29589844 189.45898438 46.10351562 189.91015625 44.875 190.375 C43.87855469 190.76429688 42.88210938 191.15359375 41.85546875 191.5546875 C34.90997608 193.46629099 29.19766003 191.86695668 22.5625 189.75 C21.68803223 189.47567139 20.81356445 189.20134277 19.91259766 188.91870117 C18.10661771 188.34978978 16.30192425 187.77677854 14.49853516 187.19970703 C12.07455019 186.43772851 9.64233638 185.72500408 7.19921875 185.02734375 C-3.65173471 181.82468632 -12.53023102 176.88456393 -21.98535156 170.73681641 C-25.339811 168.60181244 -28.78660331 166.63912493 -32.25 164.6875 C-33.95542969 163.72263672 -33.95542969 163.72263672 -35.6953125 162.73828125 C-36.49710938 162.28839844 -37.29890625 161.83851563 -38.125 161.375 C-44.37422309 169.82710322 -50.4788559 178.36501726 -56.34765625 187.0859375 C-56.8020256 187.76065598 -57.25639496 188.43537445 -57.72453308 189.13053894 C-59.99974969 192.51304416 -62.26669491 195.90079686 -64.52416992 199.29516602 C-71.04487704 209.05193025 -77.82854781 218.31563335 -86.3046875 226.49609375 C-90.70325313 231.03624411 -94.640787 236.09671304 -98.45703125 241.1328125 C-106.11392069 251.03536209 -119.11165726 259.5174133 -130.125 265.375 C-130.785 265.375 -131.445 265.375 -132.125 265.375 C-132.125 266.035 -132.125 266.695 -132.125 267.375 C-137.48473442 268.40933471 -140.08028141 268.59887525 -145.15942383 266.25073242 C-147.23479347 265.3260832 -149.32420307 264.57027558 -151.47265625 263.83203125 C-161.77737064 260.25426226 -170.83660944 256.09456874 -180.125 250.375 C-181.01445312 249.89546875 -181.90390625 249.4159375 -182.8203125 248.921875 C-190.14925624 244.92426933 -195.43501282 239.37964085 -201.125 233.375 C-201.97835937 232.54484375 -202.83171875 231.7146875 -203.7109375 230.859375 C-206.07376069 228.42773171 -208.0057527 225.96938446 -209.9375 223.1875 C-210.84435547 221.89779297 -210.84435547 221.89779297 -211.76953125 220.58203125 C-213.125 218.375 -213.125 218.375 -213.125 216.375 C-206.56788225 218.14037786 -206.56788225 218.14037786 -204.15625 219.41796875 C-196.72354052 222.91991841 -187.6372787 219.59236251 -180.33984375 217.03515625 C-162.30426766 210.20671799 -148.62872697 197.68109981 -135.96484375 183.49609375 C-133.24447083 180.4619394 -130.36743587 177.6449068 -127.4375 174.8125 C-113.28619047 160.70179681 -105.59140919 143.82995141 -97.625 125.8125 C-90.23550113 109.11212105 -82.47263494 93.67036226 -70.03515625 80.09375 C-67.39950912 76.34239948 -66.22154634 72.41473014 -64.875 68.0625 C-64.606875 67.22654297 -64.33875 66.39058594 -64.0625 65.52929688 C-63.40702135 63.48092609 -62.76467618 61.42836054 -62.125 59.375 C-63.45182727 59.25910857 -63.45182727 59.25910857 -65.05078125 61.23828125 C-66.63421684 62.86318161 -68.21755118 64.48818064 -69.80078125 66.11328125 C-73.85845981 70.06184576 -73.85845981 70.06184576 -76.125 71.375 C-78.16796875 71.15234375 -78.16796875 71.15234375 -80.3125 70.3125 C-81.10269531 70.01085937 -81.89289063 69.70921875 -82.70703125 69.3984375 C-85.74441686 68.11282356 -88.75562826 66.78125501 -91.75 65.3984375 C-94.29593866 64.30133893 -96.86975985 63.43675596 -99.5 62.5625 C-105.64754775 60.37555724 -110.77608246 57.06219818 -116.125 53.375 C-116.86621094 52.88257813 -117.60742188 52.39015625 -118.37109375 51.8828125 C-119.99952461 50.77534845 -121.57050439 49.58405214 -123.125 48.375 C-123.125 47.715 -123.125 47.055 -123.125 46.375 C-123.86105469 46.25511719 -124.59710938 46.13523437 -125.35546875 46.01171875 C-129.77257342 44.99622078 -133.28838051 42.72605976 -137.125 40.375 C-137.78757812 39.98828125 -138.45015625 39.6015625 -139.1328125 39.203125 C-143.95869575 36.0379708 -147.19981181 31.98690974 -150.5625 27.375 C-151.00005615 26.78146729 -151.4376123 26.18793457 -151.88842773 25.57641602 C-154.47771113 21.87121251 -155.7471228 18.8820444 -156.125 14.375 C-155.09761719 14.64054687 -154.07023437 14.90609375 -153.01171875 15.1796875 C-149.39463566 16.10729076 -145.77064287 17.00370327 -142.14160156 17.88330078 C-140.49528006 18.28471622 -138.85253869 18.70079103 -137.2109375 19.12109375 C-115.95205434 23.89282449 -89.28849951 15.873028 -70.92382812 5.08154297 C-68.42117047 3.42529951 -65.99220385 1.68437513 -63.56982422 -0.08642578 C-41.74808397 -15.52547449 -21.44966456 -12.8181819 0 0 Z " fill="#000000" transform="translate(306.125,241.625)"/>
<path d="M0 0 C1.3758728 0.33994995 1.3758728 0.33994995 2.77954102 0.68676758 C16.23186347 4.13122963 27.27003354 9.18205936 38.25683594 17.64208984 C40.71001746 19.51121578 43.23472485 21.27824834 45.75 23.0625 C59.57862895 33.19537202 66.96836333 44.88473566 74.875 59.875 C75.63296875 61.25751953 75.63296875 61.25751953 76.40625 62.66796875 C82.80231938 75.93981271 78.31133099 94.04438108 75.875 107.875 C75.74109863 108.6498877 75.60719727 109.42477539 75.46923828 110.22314453 C70.84637385 136.0383402 59.6866855 155.15815051 42.875 174.875 C42.06675781 175.82890625 41.25851562 176.7828125 40.42578125 177.765625 C31.54462407 187.94366096 22.25302954 197.17175092 9.875 202.875 C8.946875 203.33519531 8.01875 203.79539063 7.0625 204.26953125 C-10.84614947 212.90050537 -32.17470489 211.98823946 -50.78466797 205.74804688 C-61.72093391 201.66833823 -71.42163618 195.51990255 -80.3984375 188.12109375 C-82.95823779 185.94637995 -82.95823779 185.94637995 -85.1640625 184.47265625 C-99.42428462 174.28213222 -104.38784862 151.05904387 -107.125 134.875 C-107.59393867 131.09772474 -107.49778306 127.66018189 -107.125 123.875 C-107.06989258 123.20855469 -107.01478516 122.54210937 -106.95800781 121.85546875 C-104.83887304 97.91441446 -96.91234797 74.25230134 -86.125 52.875 C-85.59132813 51.78316406 -85.05765625 50.69132812 -84.5078125 49.56640625 C-79.81102714 40.4140218 -73.41294592 32.92382926 -66.05078125 25.8046875 C-64.15910425 23.90917343 -62.46046282 21.93396461 -60.75 19.875 C-45.74331543 2.83858647 -22.05298701 -5.48201748 0 0 Z " fill="#000000" transform="translate(371.125,30.125)"/>
<path d="M0 0 C1.13405273 0.13365967 1.13405273 0.13365967 2.29101562 0.27001953 C11.68344164 1.4450669 20.63969667 3.3648902 29.36328125 7.1015625 C32.24999605 8.31932686 35.18006653 9.36857165 38.125 10.4375 C54.477214 16.7193789 67.76966219 25.61208154 79.1875 38.9375 C82.29165395 42.55544494 85.61174271 45.90212842 89 49.25 C93.19437423 53.40414354 97.292677 57.53022617 100.9375 62.1875 C100.9375 62.8475 100.9375 63.5075 100.9375 64.1875 C101.5975 64.1875 102.2575 64.1875 102.9375 64.1875 C104.35188406 65.76036684 105.69354401 67.39889996 107 69.0625 C110.03837801 72.86897997 113.13006178 76.55017662 116.4375 80.125 C125.0462425 89.63204606 131.95307641 99.88924356 137.9375 111.1875 C138.28151855 111.81624023 138.62553711 112.44498047 138.97998047 113.09277344 C143.43127426 121.29809541 146.22712958 127.7531227 143.9375 137.1875 C143.74414062 138.15171875 143.55078125 139.1159375 143.3515625 140.109375 C139.74794254 156.47404917 131.25313269 169.37267013 121.89526367 182.9465332 C118.22005661 188.28282716 114.64506734 193.66623142 111.17163086 199.13549805 C108.96715099 202.6018284 106.71299223 206.02712486 104.41479492 209.43139648 C99.76719235 216.31820602 95.31366221 223.31247479 90.9375 230.375 C90.37321289 231.28451416 89.80892578 232.19402832 89.22753906 233.13110352 C86.9883868 236.76307398 84.7957188 240.34292819 82.9375 244.1875 C67.50892857 242.75892857 67.50892857 242.75892857 62.9375 238.1875 C59.72008034 237.10332175 56.46694381 236.20548475 53.19921875 235.28515625 C50.08921375 234.23855577 47.71659603 232.89592252 44.9375 231.1875 C42.74619466 230.49170546 42.74619466 230.49170546 40.9375 230.1875 C40.86402344 228.64642578 40.86402344 228.64642578 40.7890625 227.07421875 C40.71390764 225.67445947 40.63836563 224.27472094 40.5625 222.875 C40.51609375 221.86856445 40.51609375 221.86856445 40.46875 220.84179688 C40.24290672 216.83307869 39.74181033 213.00228235 38.95117188 209.06420898 C37.93180561 203.55953372 37.51235727 198.17337425 37.3046875 192.5859375 C37.26312531 191.62402496 37.22156311 190.66211243 37.17874146 189.67105103 C37.04954943 186.63511536 36.93107027 183.59886687 36.8125 180.5625 C36.72591607 178.52080542 36.63868149 176.47913833 36.55078125 174.4375 C36.46815787 172.46617056 36.38610708 170.49481702 36.3046875 168.5234375 C36.26721405 167.6200766 36.2297406 166.7167157 36.19113159 165.78598022 C36.02989506 161.63458681 35.93312853 157.50724212 35.99047852 153.3527832 C36.0092888 148.18280528 34.67092638 143.86271478 33 139 C32.52639038 137.61373413 32.52639038 137.61373413 32.04321289 136.19946289 C29.36761703 128.73602713 26.01103998 122.55130322 21.33154297 116.11767578 C19.70880373 113.87084978 18.13736782 111.59191196 16.56640625 109.30859375 C5.56959762 93.22862327 5.56959762 93.22862327 -6.625 78.0625 C-9.0625 75.1875 -9.0625 75.1875 -9.0625 73.1875 C-10.3 72.795625 -11.5375 72.40375 -12.8125 72 C-16.41688997 70.80966134 -19.84639405 69.41881156 -23.3125 67.875 C-28.98975353 65.46691046 -34.76716213 63.69234263 -40.6875 62 C-41.55793945 61.75016357 -42.42837891 61.50032715 -43.32519531 61.24291992 C-52.07185273 58.7989039 -60.56832001 56.80285459 -69.6875 56.875 C-70.84572266 56.88345947 -70.84572266 56.88345947 -72.02734375 56.89208984 C-90.24446893 57.26850753 -109.26913785 62.41208807 -124.0625 73.1875 C-125.28810185 74.00536738 -126.51663023 74.81889458 -127.75 75.625 C-128.513125 76.140625 -129.27625 76.65625 -130.0625 77.1875 C-129.41596157 73.04657531 -128.03588522 69.62349103 -126.3125 65.8125 C-124.11538698 60.88255207 -122.32302539 55.98649293 -120.75 50.8125 C-118.20410883 42.8845783 -114.35109722 35.95412204 -110.05981445 28.8449707 C-109.1847917 27.39074073 -108.34164798 25.91742739 -107.50390625 24.44140625 C-100.99294339 14.26030714 -88.5946204 9.96319556 -77.75 6 C-77.11199463 5.7620874 -76.47398926 5.5241748 -75.81665039 5.27905273 C-63.61935379 1.01201661 -51.33848441 -0.2754388 -38.5 -0.5 C-37.20642578 -0.53416016 -35.91285156 -0.56832031 -34.58007812 -0.60351562 C-9.93900338 -1.208735 -9.93900338 -1.208735 0 0 Z " fill="#000000" transform="translate(569.0625,107.8125)"/>
<path d="M0 0 C4.02419533 1.72891355 7.28770339 4.42024245 10.6875 7.125 C11.31398438 7.6192749 11.94046875 8.1135498 12.5859375 8.62280273 C15.99534452 11.33319345 19.29469818 14.11072488 22.5 17.0625 C39.26537458 32.21043584 57.77704034 39.26951082 79.484375 44.32421875 C82.09298353 45.02497849 84.5020881 45.97881321 87 47 C87.0093457 47.95398682 87.01869141 48.90797363 87.02832031 49.89086914 C87.59503517 100.09820254 88.78842238 153.04841731 101 202 C101.22945313 202.93005859 101.45890625 203.86011719 101.6953125 204.81835938 C105.06746179 218.20505093 109.1863794 230.330569 117.25 241.6875 C120.571218 246.39403888 121.81112729 251.42064124 123 257 C121.38078449 258.61921551 119.34643475 258.44221302 117.1171875 258.76171875 C110.92160533 259.84499539 105.75290424 262.07758867 100.125 264.8125 C98.1886904 265.72129064 96.25119532 266.62755992 94.3125 267.53125 C93.39339844 267.96179688 92.47429687 268.39234375 91.52734375 268.8359375 C83.42714815 272.56678493 75.03678994 275.37588072 66.51782227 277.98120117 C58.93634955 280.30099298 51.42677563 282.83106282 43.91015625 285.3515625 C43.09232666 285.62540771 42.27449707 285.89925293 41.43188477 286.18139648 C39.80826397 286.72792801 38.18634569 287.27954318 36.56616211 287.83618164 C28.39495263 290.62280628 19.67798102 293.02959097 11 292 C6.80523788 289.36161722 4.82034915 287.47491592 3.53125 282.65625 C3.16615684 280.9419068 2.82361947 279.22265378 2.5 277.5 C2.09680763 275.59933036 1.68912784 273.69960801 1.27734375 271.80078125 C1.07093262 270.83350098 0.86452148 269.8662207 0.65185547 268.86962891 C-0.3589236 264.41992958 -1.64003931 260.0606245 -2.9375 255.6875 C-5.50809831 246.93433435 -7.77327183 238.12592398 -9.90795898 229.2565918 C-10.95675677 224.94723329 -12.04813346 220.77323751 -13.6015625 216.6171875 C-15.58321918 210.83462728 -15.830405 204.9402668 -16.1875 198.875 C-16.26645508 197.61308838 -16.34541016 196.35117676 -16.42675781 195.05102539 C-17.73557346 172.06884582 -17.17189282 149.25971999 -15.19976807 126.33666992 C-14.70527927 120.55267693 -14.22787255 114.76722284 -13.74606323 108.98216248 C-13.30571529 103.70061455 -12.86197594 98.41941237 -12.40917969 93.13891602 C-11.53791834 82.91704604 -10.74952531 72.70730673 -10.23608398 62.46069336 C-9.95670033 58.36528153 -9.33981199 54.41093243 -8.59375 50.37890625 C-7.82361416 45.9962253 -7.23212772 41.59524723 -6.625 37.1875 C-5.51141742 29.2252392 -4.24847785 21.29655536 -2.875 13.375 C-2.61904053 11.89036255 -2.61904053 11.89036255 -2.35791016 10.37573242 C-1.12814845 3.38444535 -1.12814845 3.38444535 0 0 Z " fill="#000100" transform="translate(334,504)"/>
<path d="M0 0 C1.23298828 -0.01160156 2.46597656 -0.02320313 3.73632812 -0.03515625 C14.8103392 -0.00005637 24.86329692 1.67521915 34.5 7.3125 C35.50232666 7.88967773 35.50232666 7.88967773 36.52490234 8.47851562 C49.81597501 16.46640929 60.43792959 27.30409599 64.68359375 42.45703125 C65.81136171 47.19915189 66.5870487 51.99463718 67.3125 56.8125 C67.44035889 57.64555664 67.56821777 58.47861328 67.69995117 59.33691406 C69.34392719 71.34569032 68.62379259 83.3672616 67.50048828 95.38891602 C67.31239701 97.43862228 67.14616267 99.48939249 66.98046875 101.54101562 C65.82675036 114.7115326 61.96941779 126.37195962 56.5625 138.375 C55.91861328 139.82326172 55.91861328 139.82326172 55.26171875 141.30078125 C51.30390158 149.71811073 46.20741681 157.03032105 40.5625 164.375 C39.91023437 165.25027344 39.25796875 166.12554687 38.5859375 167.02734375 C30.50056097 176.96494797 15.62667707 188.25792374 3.19140625 192.109375 C-19.1395521 194.36569769 -41.16950335 192.17227985 -59.25 178.0625 C-69.23446583 169.36446608 -76.10497905 159.86372223 -82.4375 148.375 C-82.9936499 147.38741699 -82.9936499 147.38741699 -83.56103516 146.37988281 C-84.67105851 144.3912733 -85.74658088 142.38754676 -86.8125 140.375 C-87.13420166 139.7960498 -87.45590332 139.21709961 -87.78735352 138.62060547 C-93.51797147 127.40174304 -93.9453152 114.3216981 -93.8125 102 C-93.80851196 101.32689789 -93.80452393 100.65379578 -93.80041504 99.96029663 C-93.69678952 85.00567265 -91.8793104 71.40524586 -86.4375 57.375 C-86.01726562 56.23289062 -85.59703125 55.09078125 -85.1640625 53.9140625 C-80.18064291 41.22148553 -71.68267932 31.30321865 -61.4375 22.375 C-60.7775 22.375 -60.1175 22.375 -59.4375 22.375 C-59.4375 21.715 -59.4375 21.055 -59.4375 20.375 C-49.29713264 12.72152882 -37.40491818 7.43841691 -25.4375 3.375 C-24.66124268 3.11025879 -23.88498535 2.84551758 -23.08520508 2.57275391 C-15.35457866 0.17758878 -8.05282744 -0.0755346 0 0 Z " fill="#000000" transform="translate(498.4375,209.625)"/>
<path d="M0 0 C0 0.66 0 1.32 0 2 C1.31677734 2.35191406 1.31677734 2.35191406 2.66015625 2.7109375 C6.41183112 4.15895236 8.51353946 5.88352176 11.4375 8.625 C12.76587891 9.85089844 12.76587891 9.85089844 14.12109375 11.1015625 C16.24782288 13.1782596 18.19876985 15.35675315 20.1328125 17.61328125 C24.49088942 22.65678481 29.1952179 27.34536687 33.9152832 32.0456543 C35.43491668 33.5599258 36.94912517 35.0794743 38.46289062 36.59960938 C45.82583446 43.96924673 53.26539733 51.0103565 61.8125 57 C62.40853027 57.42152344 63.00456055 57.84304688 63.61865234 58.27734375 C73.46868548 65.20454745 73.46868548 65.20454745 84 71 C84 71.66 84 72.32 84 73 C84.598125 73.103125 85.19625 73.20625 85.8125 73.3125 C88.52057246 74.16360849 89.31899147 74.69147602 91 77 C91.5266582 79.77826993 91.88357673 82.38377111 92.125 85.1875 C92.20500244 85.99485596 92.28500488 86.80221191 92.36743164 87.6340332 C92.84644601 92.64673437 93.17035448 97.65887853 93.4375 102.6875 C93.82144472 109.32709572 94.49260302 115.90012773 95.3125 122.5 C95.41812256 123.40065186 95.52374512 124.30130371 95.63256836 125.22924805 C96.44845768 131.51277175 97.83771233 137.57065519 99.42503357 143.69540405 C101.22657406 150.71315548 102.59342227 157.79548544 103.95025635 164.91012573 C108.91575286 191.50873813 108.91575286 191.50873813 118.1171875 216.85546875 C119 219 119 219 119 222 C114.05 221.34 109.1 220.68 104 220 C103.938125 218.515 103.87625 217.03 103.8125 215.5 C103.11329287 208.6438856 100.62952036 204.15804659 95.3203125 199.80078125 C91.44146531 197.69707707 88.36018861 197.43645615 84.0625 197.5625 C83.38509766 197.55541016 82.70769531 197.54832031 82.00976562 197.54101562 C75.21581395 197.62569575 70.05988691 199.71757196 65.125 204.3125 C61.90267019 206.75829113 61.33505468 207.01595498 57.0625 206.8125 C51.74654478 205.14781506 46.58779662 202.85698159 41.46264648 200.67993164 C36.16750059 198.43182118 30.84186214 196.55219328 25.3203125 194.921875 C22.86781336 193.9474814 21.77923534 192.89400404 20 191 C21.95771576 187.89544344 23.9162792 184.79142254 25.875 181.6875 C26.43058594 180.80642578 26.98617187 179.92535156 27.55859375 179.01757812 C28.09355469 178.17001953 28.62851563 177.32246094 29.1796875 176.44921875 C29.67194824 175.66893311 30.16420898 174.88864746 30.67138672 174.0847168 C31.76012949 172.37637895 32.8763002 170.6855497 34 169 C37.78243228 168.74609536 41.47388873 168.70940365 45.25976562 168.82421875 C49.86532649 168.82792285 49.86532649 168.82792285 53.64501953 166.48266602 C60.40095226 157.1349651 61.16926881 145.86572175 59.69140625 134.66015625 C58.01736926 127.17884049 54.40944309 120.40944309 49 115 C42.56989364 111.05367982 36.55830602 109.14110159 29 110 C21.50126906 112.25505314 17.14517353 117.399173 13.25 123.9375 C9.56762387 132.95932151 8.66069882 141.70561172 12 151 C13.61269144 154.3641801 15.34200832 157.34200832 18 160 C18.35566182 166.44711681 15.99596574 172.28188731 13.4375 178.0625 C13.10814453 178.83271484 12.77878906 179.60292969 12.43945312 180.39648438 C11.63697508 182.26893315 10.82001391 184.13516418 10 186 C5.14445795 185.46877947 1.57848487 183.15073033 -2.4375 180.5625 C-3.13037109 180.12309082 -3.82324219 179.68368164 -4.53710938 179.23095703 C-11.54067795 174.74300146 -18.29726271 169.9223227 -25 165 C-24.38864879 162.19835958 -23.53854117 159.88093341 -22.1875 157.35546875 C-21.83429688 156.67806641 -21.48109375 156.00066406 -21.1171875 155.30273438 C-20.37723084 153.90173252 -19.63249365 152.5032443 -18.8828125 151.10742188 C-16.63157842 146.76516928 -15.0544491 142.9972177 -15 138 C-16.36498084 135.82987565 -16.36498084 135.82987565 -18.4375 134.1875 C-21.89461069 130.67573143 -21.89461069 130.67573143 -22.3984375 127.4453125 C-22.34199442 125.71610175 -22.2543888 123.98757357 -22.1328125 122.26171875 C-21.95919989 119.30519812 -22.4448919 117.51779406 -24 115 C-26.44043176 112.55956824 -28.14276103 111.21430974 -31.5 110.375 C-34.64378115 111.16094529 -36.13908185 112.71503306 -38.046875 115.29296875 C-39.60971825 118.09199538 -39.57519585 119.86837816 -39 123 C-37.31753902 126.89579558 -35.59913606 129.60057596 -32 132 C-30.845 132.28875 -29.69 132.5775 -28.5 132.875 C-25 134 -25 134 -23 135.8125 C-21.64361179 138.7795992 -22.07487873 139.85373503 -23 143 C-24.3910943 145.84754448 -25.96570369 148.57618289 -27.5625 151.3125 C-28.19961914 152.42334961 -28.19961914 152.42334961 -28.84960938 153.55664062 C-29.89351653 155.37468118 -30.94592192 157.18783748 -32 159 C-36.37713959 157.44682144 -40.17268189 155.1830885 -44.0625 152.6875 C-44.67416016 152.30916016 -45.28582031 151.93082031 -45.91601562 151.54101562 C-49.72686344 149.10619286 -52.26386211 146.6600286 -55 143 C-56.2404744 141.86183277 -57.51119093 140.75558056 -58.8125 139.6875 C-62.1799629 136.80727075 -65.01610655 133.76756564 -67.86328125 130.3828125 C-69.62114413 128.42249009 -71.4122085 126.58117658 -73.29296875 124.7421875 C-74.17529175 123.87907959 -74.17529175 123.87907959 -75.07543945 122.99853516 C-76.25907801 121.84845792 -77.44888357 120.70468793 -78.64526367 119.56787109 C-81.50052005 116.78948862 -83.28208216 114.9311024 -84 111 C-84.66 111 -85.32 111 -86 111 C-87.85483724 107.74667774 -89.2586644 104.68421331 -90 101 C-88.96574584 97.39010501 -86.92937391 94.72657158 -84.6875 91.75 C-83.53549295 90.08539219 -82.38836146 88.41739979 -81.24609375 86.74609375 C-80.6826123 85.93769043 -80.11913086 85.12928711 -79.53857422 84.29638672 C-76.10598203 79.17309854 -73.64002233 73.56023571 -71 68 C-69.59547268 65.16055894 -68.17253419 62.33045331 -66.75 59.5 C-66.09864 58.19807588 -65.44758363 56.8959998 -64.796875 55.59375 C-63.19791667 52.39583333 -61.59895833 49.19791667 -60 46 C-49.77 46.66 -39.54 47.32 -29 48 C-28.938125 50.59875 -28.87625 53.1975 -28.8125 55.875 C-28.47720794 63.08171812 -27.52138851 69.11366402 -23 75 C-18.15609015 79.21209552 -12.99494695 80.6609494 -6.6875 81.375 C-0.74833069 80.77101668 4.47471528 78.68352315 9.4375 75.375 C13.54989157 69.12416481 15.01920632 61.36608204 14 54 C11.92783892 43.98455476 8.59149419 36.97617364 0.1875 31 C-5.26860905 29.28827951 -10.22819283 28.72070438 -15.5390625 31.171875 C-20.24914766 34.1049812 -20.24914766 34.1049812 -23.17578125 38.6796875 C-25 41 -25 41 -26.86499023 41.43188477 C-29.34494321 41.56997034 -31.76805896 41.53500236 -34.25 41.4375 C-35.14082275 41.42009766 -36.03164551 41.40269531 -36.94946289 41.38476562 C-43.69162917 41.19639311 -50.27309327 40.5091336 -56.93359375 39.4375 C-59.67899582 39.04579932 -62.23334358 38.91725887 -65 39 C-65.3403125 39.680625 -65.680625 40.36125 -66.03125 41.0625 C-67.07369795 43.1473959 -68.11672636 45.23200161 -69.16015625 47.31640625 C-70.42347079 49.84235208 -71.68033292 52.37139571 -72.93359375 54.90234375 C-87.41285382 84.09904469 -87.41285382 84.09904469 -93 91 C-93.99 91 -94.98 91 -96 91 C-103.19562847 78.6146041 -111 58.50549132 -111 44 C-108.875 42.16796875 -108.875 42.16796875 -106 40.1875 C-102.68594579 37.88444207 -99.47368826 35.58224021 -96.375 33 C-87.42079634 26.25217096 -75.85629388 22.11393528 -65.41796875 18.30078125 C-63.47337393 17.56072402 -61.53750694 16.79313547 -59.63818359 15.94360352 C-50.11575706 11.7372403 -40.26252607 9.06412641 -30.25 6.3125 C-28.4933011 5.82294148 -26.73678927 5.33271115 -24.98046875 4.84179688 C-16.64913361 2.52114395 -16.64913361 2.52114395 -13.1348877 1.5753479 C-11.67877437 1.18292831 -10.22529908 0.78061896 -8.77429199 0.36972046 C-3.33640583 -1.11213528 -3.33640583 -1.11213528 0 0 Z " fill="#000000" transform="translate(217,623)"/>
<path d="M0 0 C5.48070238 1.48453671 9.66344858 4.10888553 14.3125 7.25 C15.48304932 8.03648926 15.48304932 8.03648926 16.67724609 8.83886719 C29.65058451 17.71385156 42.00236013 27.75749363 52.20703125 39.75390625 C55.90358292 43.99022852 59.91489841 47.77445616 64.0625 51.5625 C69.10543555 56.19882664 73.88180872 60.89505648 78.37402344 66.06787109 C85.65663033 74.40138048 92.89250353 78.73755327 103 83 C105.38307757 84.0488514 107.75767303 85.11321751 110.12573242 86.19555664 C111.63658793 86.88468801 113.15486982 87.5578234 114.6809082 88.21264648 C116.74609375 89.140625 116.74609375 89.140625 120 91 C121.10877724 94.12928526 121.15722216 97.19923679 121.3125 100.5 C122.19737999 111.43553187 126.78915296 121.01871784 131.203125 130.91015625 C133.47889758 136.03795432 135.53216243 141.24656392 137.58984375 146.46484375 C138.90819361 149.76984824 140.28792979 153.04126576 141.6875 156.3125 C143.84657663 161.44553058 145.53855682 166.62949335 147 172 C147.66 172 148.32 172 149 172 C150.4453125 173.8359375 150.4453125 173.8359375 152.125 176.375 C158.66782006 186.23618813 166.38662272 194.6649277 174.8125 202.9375 C175.76284523 203.87777492 176.71271724 204.81852838 177.66210938 205.75976562 C179.39196956 207.47231485 181.12389141 209.18278621 182.85864258 210.89038086 C184.58003138 212.58625598 186.29443108 214.28824775 188 216 C148.9989638 229.95033772 90.7208423 230.22347417 51.98828125 214.80078125 C44.97005274 210.93785547 42.77871149 204.15871434 40 197 C39.31550781 195.453125 39.31550781 195.453125 38.6171875 193.875 C24.30143069 160.70625197 16.22404758 123.45645188 13.45703125 87.59375 C12.97546973 81.47842557 12.22188021 75.43101149 11.33154297 69.36230469 C10.91339196 66.38290174 10.53815902 63.39882247 10.16015625 60.4140625 C8.43793398 47.04908506 6.36760851 33.95656909 3.1484375 20.8671875 C1.47696376 13.98680405 -0.17398749 7.11114025 0 0 Z " fill="#008171" transform="translate(425,553)"/>
<path d="M0 0 C0.93392578 0.2784375 0.93392578 0.2784375 1.88671875 0.5625 C1.85191406 2.13837891 1.85191406 2.13837891 1.81640625 3.74609375 C1.71213727 10.63687781 1.66712732 16.96284933 3.5078125 23.65625 C4.13212577 26.79712503 3.54775733 29.45561866 2.88671875 32.5625 C2.22671875 32.5625 1.56671875 32.5625 0.88671875 32.5625 C0.73976563 34.05910156 0.73976563 34.05910156 0.58984375 35.5859375 C-1.75013979 51.46439724 -14.4202349 62.55236656 -25.4453125 72.98046875 C-28.95224259 76.30679024 -31.57010635 79.48407516 -34.11328125 83.5625 C-34.77328125 83.5625 -35.43328125 83.5625 -36.11328125 83.5625 C-36.36150635 84.12799561 -36.60973145 84.69349121 -36.86547852 85.27612305 C-41.64875458 94.04062712 -50.65796264 101.26267155 -57.67578125 108.25 C-58.56974609 109.14783203 -59.46371094 110.04566406 -60.38476562 110.97070312 C-73.89360182 124.45977511 -88.29762819 135.61854338 -105.19189453 144.54248047 C-107.0310742 145.51885819 -108.85154201 146.52419866 -110.671875 147.53515625 C-120.45135129 152.76345742 -130.10166845 155.10449483 -140.8515625 157.33984375 C-151.90011019 159.74942651 -162.49806431 163.23550503 -173.16650391 166.94580078 C-181.07891191 169.66721955 -188.92654144 171.84467747 -197.11328125 173.5625 C-197.90726318 173.757229 -198.70124512 173.95195801 -199.51928711 174.15258789 C-207.07499824 175.91502408 -214.76326791 176.112938 -222.48403931 176.4541626 C-226.61130622 176.63728489 -230.7373173 176.84445543 -234.86328125 177.0546875 C-235.66945389 177.09560516 -236.47562653 177.13652283 -237.30622864 177.17868042 C-244.50048313 177.55704105 -251.66096084 178.15920849 -258.8215332 178.953125 C-263.61930811 179.47711407 -268.28507353 179.63887843 -273.11328125 179.5625 C-274.47991512 177.13126731 -275.83166795 174.69363837 -277.17578125 172.25 C-277.56572266 171.55970703 -277.95566406 170.86941406 -278.35742188 170.15820312 C-279.35365608 168.33324312 -280.24080967 166.44976123 -281.11328125 164.5625 C-279.06907735 158.42988829 -270.66533213 154.5005361 -265.11328125 151.5625 C-261.46846365 150.03674358 -257.72858025 148.89082712 -253.95166016 147.74194336 C-241.48481676 143.92445324 -230.27607087 137.82024638 -219.13427734 131.13818359 C-209.9333147 125.62187065 -200.34225026 121.19386458 -190.53735352 116.87890625 C-184.01627105 113.99540215 -177.55490188 110.99416111 -171.11328125 107.9375 C-170.17057373 107.49446533 -169.22786621 107.05143066 -168.2565918 106.5949707 C-162.78665376 103.98373739 -157.59641222 101.1153477 -152.43115234 97.94628906 C-149.18761273 96.0098679 -145.83254073 94.37536066 -142.42578125 92.75 C-136.87470076 90.04627235 -131.55659464 87.11443215 -126.30078125 83.875 C-121.29161068 80.78993757 -116.29780187 78.13529087 -110.88134766 75.80908203 C-101.6718748 71.66165141 -93.11139646 66.1980903 -84.55078125 60.875 C-82.25711161 59.45215399 -79.96260283 58.03066499 -77.66796875 56.609375 C-76.55389648 55.91908203 -75.43982422 55.22878906 -74.29199219 54.51757812 C-71.47680498 52.78608664 -68.64924239 51.07989619 -65.80859375 49.390625 C-58.48529494 45.02912021 -51.62823773 40.657923 -45.15234375 35.07421875 C-41.08624005 31.71367289 -36.8207455 28.6572485 -32.55078125 25.5625 C-23.51645503 18.97659821 -15.44958326 11.94244113 -7.5703125 4.0078125 C-2.9204903 -0.60461167 -2.9204903 -0.60461167 0 0 Z " fill="#008171" transform="translate(323.11328125,465.4375)"/>
<path d="M0 0 C1.59415568 0.63766227 3.18918027 1.27315745 4.78515625 1.90625 C5.48648682 2.18791016 6.18781738 2.46957031 6.91040039 2.75976562 C8.90139997 3.48681738 10.87326682 4.02513082 12.9375 4.5 C12.9375 4.17 12.9375 3.84 12.9375 3.5 C19.83176805 3.87605098 26.00136826 5.55794941 32.55639648 7.59643555 C53.44825475 14.0600136 75.61416492 13.84074187 96.9375 9.5 C98.50516113 9.18385742 98.50516113 9.18385742 100.10449219 8.86132812 C113.27107941 6.15675711 126.29941296 3.02121567 139.22436523 -0.67114258 C140.06813721 -0.9111499 140.91190918 -1.15115723 141.78125 -1.3984375 C142.51537109 -1.61161621 143.24949219 -1.82479492 144.00585938 -2.04443359 C145.9375 -2.5 145.9375 -2.5 148.9375 -2.5 C146.75923045 7.99740541 137.42878034 17.16924179 130.125 24.5625 C129.64466309 25.05210205 129.16432617 25.5417041 128.66943359 26.04614258 C125.18404821 29.5 125.18404821 29.5 122.9375 29.5 C122.56625 30.36625 122.56625 30.36625 122.1875 31.25 C120.70929527 33.91076851 119.35435961 35.63556544 116.9375 37.5 C114.00589862 37.34153506 111.64740451 36.39935463 108.875 35.4375 C102.64486835 33.63798714 95.08156063 33.31471423 89 35.75 C79.27836103 41.30522227 75.25214284 49.6585746 71.796875 60.0546875 C71.51328125 60.86164063 71.2296875 61.66859375 70.9375 62.5 C70.72480469 63.221875 70.51210938 63.94375 70.29296875 64.6875 C68.10392346 67.61463836 64.90742294 67.90205954 61.5 68.625 C60.7793335 68.78967773 60.05866699 68.95435547 59.31616211 69.12402344 C57.19356325 69.60175599 55.0669881 70.05412556 52.9375 70.5 C51.885625 70.72945312 50.83375 70.95890625 49.75 71.1953125 C44.05380875 72.34426017 38.7447903 72.69040296 32.9375 72.5 C32.88335937 71.64277344 32.82921875 70.78554688 32.7734375 69.90234375 C32.25950853 66.03916579 31.59586898 63.04005948 29.9375 59.5 C25.596512 56.23727543 20.99662363 54.41047747 15.9375 52.5 C8.61650099 49.67219428 8.61650099 49.67219428 6.78125 46.50390625 C6.13101723 44.94911578 5.50620258 43.38346928 4.90625 41.80859375 C2.09234801 35.10288377 -2.92258789 31.39154655 -9.41015625 28.4453125 C-14.9751812 26.46190154 -20.38715589 25.53316241 -26 27.75 C-29.98140397 30.02508798 -31.61140027 31.14670081 -33.0625 35.5 C-33.46264809 40.70192512 -33.09605415 45.16086558 -30.0625 49.5 C-22.35816916 57.07905716 -15.41813952 59.71471076 -4.75 59.875 C-4.04351318 59.88909912 -3.33702637 59.90319824 -2.60913086 59.91772461 C1.37749249 59.97270464 1.37749249 59.97270464 4.60546875 57.9140625 C5.04503906 57.44742188 5.48460937 56.98078125 5.9375 56.5 C12.18463242 56.85060437 18.28137804 60.52526175 22.9375 64.5 C24.23451899 67.98573854 24.18143994 70.84090089 23.9375 74.5 C14.40035891 77.03761996 4.95730683 76.6014278 -4.80517578 76.27856445 C-7.55610752 76.18771112 -10.30710662 76.112881 -13.05859375 76.04101562 C-35.13993025 75.43135189 -35.13993025 75.43135189 -39.0625 74.5 C-41.25 71.875 -41.25 71.875 -43.0625 68.5 C-48.53049547 62.97358577 -54.00606442 58.13594763 -62.0234375 57.4453125 C-69.20254351 57.63785557 -74.20120891 62.78289974 -79.0625 67.5 C-79.92875 68.49 -80.795 69.48 -81.6875 70.5 C-84.0625 72.5 -84.0625 72.5 -86.875 72.6875 C-98.49452203 68.35865846 -108.30526 56.14855367 -114.0625 45.5 C-114.0625 44.84 -114.0625 44.18 -114.0625 43.5 C-114.7225 43.5 -115.3825 43.5 -116.0625 43.5 C-117.0723473 41.58850332 -118.07004495 39.67058431 -119.0625 37.75 C-119.619375 36.68265625 -120.17625 35.6153125 -120.75 34.515625 C-122.0625 31.5 -122.0625 31.5 -122.0625 27.5 C-115.23311612 25.43581323 -108.44051421 23.53592145 -101.45239258 22.09326172 C-92.60814919 20.26473323 -84.46724911 17.62267708 -76.08642578 14.29101562 C-61.54228036 8.60669341 -46.83658718 4.15134428 -31.48828125 1.21875 C-26.19145115 0.10744243 -21.2345608 -1.51269964 -16.3125 -3.75 C-10.9306212 -5.5439596 -4.99248035 -2.00666281 0 0 Z " fill="#000000" transform="translate(472.0625,782.5)"/>
<path d="M0 0 C5.88288757 2.27788576 10.21301216 4.9131509 14.25 9.8125 C25.51392631 23.09752469 41.54465878 27.89176888 58 31 C57.67 34.3 57.34 37.6 57 41 C56.34 41 55.68 41 55 41 C54.62875 41.82951172 54.62875 41.82951172 54.25 42.67578125 C46.87141402 56.39533956 33.89264308 65.27105235 21.234375 73.5612793 C15.30049008 77.44757805 9.4807377 81.44510301 3.75 85.625 C3.01861816 86.15746338 2.28723633 86.68992676 1.53369141 87.23852539 C0.07646189 88.30028593 -1.38041073 89.36253649 -2.83691406 90.42529297 C-20.45993963 103.25469646 -38.36203058 114.9101683 -58 124.4375 C-65.82420274 128.29744002 -73.22149108 133.02322395 -80.62109375 137.6328125 C-93.13017649 145.3534268 -106.71455321 151.77828833 -120.39208984 157.12402344 C-127.877166 160.05106313 -135.03927609 163.37772727 -142.18896484 167.06591797 C-151.32048011 171.77570193 -160.51449412 176.32330331 -169.875 180.5625 C-170.65456055 180.92142334 -171.43412109 181.28034668 -172.23730469 181.65014648 C-174.13156734 182.49581452 -176.06342962 183.25630612 -178 184 C-178.66 183.67 -179.32 183.34 -180 183 C-179.35937622 182.47998413 -179.35937622 182.47998413 -178.70581055 181.94946289 C-178.10551025 181.4621167 -177.50520996 180.97477051 -176.88671875 180.47265625 C-176.2215625 179.9327002 -175.55640625 179.39274414 -174.87109375 178.83642578 C-173.40036358 177.64162196 -171.93032473 176.44596672 -170.4609375 175.24951172 C-167.33544434 172.70491691 -164.20817071 170.16515795 -161.05078125 167.66015625 C-152.59571661 160.91423178 -144.80898258 153.47223671 -137 146 C-136.18015625 145.22269531 -135.3603125 144.44539062 -134.515625 143.64453125 C-128.43880215 137.75001309 -123.15665764 131.15847114 -118.04296875 124.421875 C-115.89909814 121.88038403 -113.68132548 119.9813653 -111.0625 117.9375 C-106.70396242 114.44950921 -102.57000996 110.81922241 -98.5 107 C-93.75264505 102.55881353 -88.88293987 98.35564519 -83.81640625 94.27734375 C-72.96694839 85.50448116 -62.27927608 76.44903363 -52.51171875 66.4765625 C-51 65 -51 65 -48.5 63.0625 C-45.53984476 60.62037193 -43.19102324 57.87573477 -40.7109375 54.95703125 C-39 53 -39 53 -36.125 50.25 C-33.88917741 48.28134189 -33.88917741 48.28134189 -33.63671875 46.18359375 C-32.72021944 43.04050716 -30.85016018 41.25799612 -28.6875 38.8125 C-23.35429774 32.63010503 -18.71026517 26.05582885 -14.05078125 19.359375 C-11.01768986 15.00205881 -7.89805646 10.71225096 -4.75 6.4375 C-4.27183838 5.7880542 -3.79367676 5.1386084 -3.30102539 4.46948242 C-2.20195506 2.97871672 -1.10118661 1.48920315 0 0 Z " fill="#000000" transform="translate(269,413)"/>
<path d="M0 0 C1.23298828 -0.01160156 2.46597656 -0.02320313 3.73632812 -0.03515625 C14.8103392 -0.00005637 24.86329692 1.67521915 34.5 7.3125 C35.50232666 7.88967773 35.50232666 7.88967773 36.52490234 8.47851562 C49.81597501 16.46640929 60.43792959 27.30409599 64.68359375 42.45703125 C65.81136171 47.19915189 66.5870487 51.99463718 67.3125 56.8125 C67.44035889 57.64555664 67.56821777 58.47861328 67.69995117 59.33691406 C69.34392719 71.34569032 68.62379259 83.3672616 67.50048828 95.38891602 C67.31239701 97.43862228 67.14616267 99.48939249 66.98046875 101.54101562 C65.82675036 114.7115326 61.96941779 126.37195962 56.5625 138.375 C55.91861328 139.82326172 55.91861328 139.82326172 55.26171875 141.30078125 C51.30390158 149.71811073 46.20741681 157.03032105 40.5625 164.375 C39.91023437 165.25027344 39.25796875 166.12554687 38.5859375 167.02734375 C30.50056097 176.96494797 15.62667707 188.25792374 3.19140625 192.109375 C-19.1395521 194.36569769 -41.16950335 192.17227985 -59.25 178.0625 C-69.23446583 169.36446608 -76.10497905 159.86372223 -82.4375 148.375 C-82.9936499 147.38741699 -82.9936499 147.38741699 -83.56103516 146.37988281 C-84.67105851 144.3912733 -85.74658088 142.38754676 -86.8125 140.375 C-87.13420166 139.7960498 -87.45590332 139.21709961 -87.78735352 138.62060547 C-93.51797147 127.40174304 -93.9453152 114.3216981 -93.8125 102 C-93.80851196 101.32689789 -93.80452393 100.65379578 -93.80041504 99.96029663 C-93.69678952 85.00567265 -91.8793104 71.40524586 -86.4375 57.375 C-86.01726562 56.23289062 -85.59703125 55.09078125 -85.1640625 53.9140625 C-80.18064291 41.22148553 -71.68267932 31.30321865 -61.4375 22.375 C-60.7775 22.375 -60.1175 22.375 -59.4375 22.375 C-59.4375 21.715 -59.4375 21.055 -59.4375 20.375 C-49.29713264 12.72152882 -37.40491818 7.43841691 -25.4375 3.375 C-24.66124268 3.11025879 -23.88498535 2.84551758 -23.08520508 2.57275391 C-15.35457866 0.17758878 -8.05282744 -0.0755346 0 0 Z M-56.984375 49.19140625 C-68.9564688 64.36293891 -77.68994493 84.16415979 -77.5625 103.625 C-77.55766602 104.40568848 -77.55283203 105.18637695 -77.54785156 105.99072266 C-77.52320918 108.45249631 -77.48324494 110.91353278 -77.4375 113.375 C-77.42493164 114.16680664 -77.41236328 114.95861328 -77.39941406 115.77441406 C-77.06274813 132.36723505 -73.5207901 145.87214834 -61.9375 158.4375 C-46.66241846 172.82621318 -28.04513725 181.13149043 -7.0859375 180.6875 C3.83345097 180.16020559 11.86775416 175.35971544 19.21875 167.5546875 C33.85224744 151.15686768 40.69578071 133.43462164 45.5625 112.375 C45.91957031 111.11945313 46.27664063 109.86390625 46.64453125 108.5703125 C51.28771754 89.93451727 46.96697124 66.41295221 38.5625 49.375 C37.06446118 47.16400912 35.51058584 45.50038252 33.625 43.5625 C32.79097656 42.68980469 31.95695313 41.81710938 31.09765625 40.91796875 C30.26105469 40.07878906 29.42445313 39.23960937 28.5625 38.375 C27.76714844 37.52035156 26.97179687 36.66570312 26.15234375 35.78515625 C23.300356 33.13104397 20.50325284 31.44184613 17.0625 29.625 C15.40734375 28.73554688 15.40734375 28.73554688 13.71875 27.828125 C7.03220709 24.74966713 0.17352359 25.12340929 -7.0625 25.0625 C-8.75052734 25.01899414 -8.75052734 25.01899414 -10.47265625 24.97460938 C-29.16362696 24.83415699 -44.79113671 35.70777925 -56.984375 49.19140625 Z " fill="#005D53" transform="translate(498.4375,209.625)"/>
<path d="M0 0 C2.25 0.11328125 2.25 0.11328125 5 1 C6.58693911 3.06736013 7.77055434 4.91942523 9 7.1875 C9.7860956 8.5640093 10.57257749 9.94029804 11.359375 11.31640625 C11.78154297 12.06809082 12.20371094 12.81977539 12.63867188 13.59423828 C15.11623586 17.9726306 17.68872357 22.29523227 20.25 26.625 C20.79744873 27.55393066 21.34489746 28.48286133 21.90893555 29.43994141 C26.76985771 37.66785527 31.7771916 45.80032055 36.83203125 53.91015625 C37.33645752 54.72194336 37.84088379 55.53373047 38.3605957 56.37011719 C39.53235265 58.24981427 40.71140184 60.12497346 41.89526367 61.99707031 C46.53795326 69.40778813 50.6898987 76.95512715 54.70007324 84.71923828 C60.95528263 96.79197026 67.68659407 108.20035714 75.70898438 119.20703125 C77.54597929 121.75825868 79.27528667 124.3718654 81 127 C79.84826645 129.46800047 78.95216435 131.04783565 77 133 C53.18682293 133.02775429 34.08148056 119.18227466 17 104 C16.14921875 103.26007813 15.2984375 102.52015625 14.421875 101.7578125 C9.55997822 97.47620662 4.90584789 93.00322466 0.3125 88.4375 C-0.21021484 87.91945801 -0.73292969 87.40141602 -1.27148438 86.86767578 C-10.32605119 77.77609345 -17.80881021 67.6989042 -25.30810547 57.32080078 C-26.82881997 55.23481059 -28.37747487 53.17473554 -29.94140625 51.12109375 C-30.7741133 49.99789654 -31.60619698 48.87423676 -32.4375 47.75 C-33.15808594 46.79609375 -33.87867188 45.8421875 -34.62109375 44.859375 C-36.4410195 41.08547799 -36.13519444 38.98953107 -35 35 C-33.3984375 33.1796875 -33.3984375 33.1796875 -31.375 31.875 C-30.72273437 31.43929687 -30.07046875 31.00359375 -29.3984375 30.5546875 C-28.05174986 29.68175317 -26.70263581 28.81244734 -25.34521484 27.95629883 C-20.73119912 24.89135464 -17.88020065 21.55297918 -14.875 16.9375 C-8.38417086 7.09756893 -8.38417086 7.09756893 -2.6875 5.25 C-2.130625 5.1675 -1.57375 5.085 -1 5 C-0.67 3.35 -0.34 1.7 0 0 Z " fill="#000000" transform="translate(687,606)"/>
<path d="M0 0 C1.47339844 -0.02416992 1.47339844 -0.02416992 2.9765625 -0.04882812 C18.4433748 -0.05900366 33.10388417 5.90195194 44.38842773 16.48583984 C54.89963868 27.02694716 64.37659841 40.16092271 67.5625 54.875 C67.90861328 56.42380859 67.90861328 56.42380859 68.26171875 58.00390625 C69.61582251 65.30916668 70.05715405 72.33516433 70.0625 79.75 C70.07474609 80.64009766 70.08699219 81.53019531 70.09960938 82.44726562 C70.1167552 90.27147914 68.93992256 97.33119834 65.875 104.5625 C65.545 105.35140625 65.215 106.1403125 64.875 106.953125 C64.545 107.73171875 64.215 108.5103125 63.875 109.3125 C63.58753906 110.20195312 63.30007813 111.09140625 63.00390625 112.0078125 C61.875 114.3125 61.875 114.3125 60.02734375 115.3515625 C58.93099609 115.64160156 58.93099609 115.64160156 57.8125 115.9375 C57.0184375 116.16308594 56.224375 116.38867188 55.40625 116.62109375 C54.15328125 116.96333984 54.15328125 116.96333984 52.875 117.3125 C51.18421896 117.86505947 49.49650407 118.42711887 47.8125 119 C45.84375 119.65625 45.84375 119.65625 43.875 120.3125 C43.483125 119.075 43.09125 117.8375 42.6875 116.5625 C30.09492965 79.41441746 4.85787925 43.37893376 -26.28125 19.5 C-30.06664163 16.58816029 -30.06664163 16.58816029 -30.60546875 14.04296875 C-30.125 11.3125 -30.125 11.3125 -27.23828125 8.92578125 C-25.98264255 8.14050879 -24.71501729 7.3741535 -23.4375 6.625 C-22.81166016 6.23505859 -22.18582031 5.84511719 -21.54101562 5.44335938 C-14.19875202 0.9457424 -8.564612 -0.02745068 0 0 Z " fill="#000000" transform="translate(682.125,124.6875)"/>
<path d="M0 0 C2.31 0.66 4.62 1.32 7 2 C7 2.66 7 3.32 7 4 C7.82564453 4.35578125 7.82564453 4.35578125 8.66796875 4.71875 C11.57311543 6.31487749 13.81615861 8.31785925 16.3125 10.5 C25.46367408 18.31764354 35.58836368 24.88409809 46.14453125 30.6484375 C48.29760507 32.2167818 48.8511009 33.64402968 50 36 C51.485 36.495 51.485 36.495 53 37 C53.92783089 42.82361944 53.9121026 47.85545128 53.1875 53.6875 C52.46760007 59.96794342 51.89662151 66.23139491 51.5234375 72.54296875 C51.44585205 73.83823486 51.3682666 75.13350098 51.28833008 76.46801758 C51.13987953 79.03629237 51.00139876 81.6051664 50.8737793 84.17456055 C50.80328369 85.36218994 50.73278809 86.54981934 50.66015625 87.7734375 C50.60480713 88.82966309 50.54945801 89.88588867 50.49243164 90.97412109 C49.93072458 94.42568146 48.69763684 96.96158522 47 100 C44.8125 100.3125 44.8125 100.3125 42 100 C38.05069555 96.37363697 34.49482247 92.32882105 30.875 88.375 C29.83131865 87.23643853 28.78706613 86.09840031 27.7421875 84.9609375 C27.2869873 84.46384277 26.83178711 83.96674805 26.36279297 83.45458984 C25.38801462 82.41415104 24.37087025 81.41277548 23.32861328 80.43994141 C22 79 22 79 22 77 C21.42113037 76.74259033 20.84226074 76.48518066 20.24584961 76.2199707 C17.79958285 74.89113115 16.08044381 73.39854117 14.06640625 71.48046875 C12.9690918 70.44116211 12.9690918 70.44116211 11.84960938 69.38085938 C11.09486328 68.65705078 10.34011719 67.93324219 9.5625 67.1875 C8.43618164 66.11918945 8.43618164 66.11918945 7.28710938 65.02929688 C5.18262453 63.02846299 3.09028271 61.01564853 1 59 C0.45585449 58.48646973 -0.08829102 57.97293945 -0.64892578 57.44384766 C-1.80448132 56.33469344 -2.90935433 55.17304037 -4 54 C-4 53.34 -4 52.68 -4 52 C-4.88619019 51.59599976 -4.88619019 51.59599976 -5.7902832 51.18383789 C-7.99799464 50.00107435 -9.539358 48.77098753 -11.35546875 47.05859375 C-11.97413818 46.47867676 -12.59280762 45.89875977 -13.23022461 45.30126953 C-13.87612549 44.68622559 -14.52202637 44.07118164 -15.1875 43.4375 C-15.85080322 42.81214355 -16.51410645 42.18678711 -17.19750977 41.54248047 C-22.22402085 36.78580401 -27.16557841 31.95233431 -32 27 C-28.58345678 23.38248365 -25.13942885 20.73282681 -21 18 C-13.4593696 12.49889494 -6.35773634 6.87634323 0 0 Z " fill="#008171" transform="translate(256,588)"/>
<path d="M0 0 C3.58185516 1.3270126 5.24687392 3.71089487 7.40625 6.7109375 C7.83856934 7.29149902 8.27088867 7.87206055 8.71630859 8.47021484 C12.33499063 13.41010872 15.51927917 18.58601819 18.66796875 23.8359375 C21.70102769 28.757737 25.08388111 33.37110895 28.59375 37.9609375 C29.2228125 38.79625 29.851875 39.6315625 30.5 40.4921875 C42.08384859 55.28387109 55.19359783 67.05665652 71.109375 77.0078125 C74.78602045 79.33101739 77.6948197 81.72659378 80.59375 84.9609375 C65.34707095 83.66884606 50.58825606 79.26588636 36.578125 73.22265625 C33.69264088 72.00274608 30.78487736 70.91357279 27.84375 69.8359375 C18.14622769 66.14386876 8.79206967 61.63547168 -0.61132812 57.26074219 C-3.00421624 56.14790708 -5.39961575 55.04087429 -7.796875 53.9375 C-10.22040724 52.82055704 -12.63470318 51.68863633 -15.046875 50.546875 C-17.29559182 49.48527148 -19.55638228 48.44889231 -21.828125 47.4375 C-36.20286336 40.77048334 -51.05574453 30.30983845 -60.03125 17.0234375 C-60.60230469 16.18167969 -61.17335938 15.33992187 -61.76171875 14.47265625 C-64.03428741 11.00172596 -66.24285735 7.50103456 -68.40625 3.9609375 C-63.03777132 4.92032342 -57.67958977 5.89519157 -52.34375 7.0234375 C-47.37653076 8.01844829 -42.4591194 8.61942252 -37.40625 8.9609375 C-36.16294922 9.07695313 -36.16294922 9.07695313 -34.89453125 9.1953125 C-24.84497675 9.7360957 -14.50425692 6.34475375 -5.71875 1.5859375 C-2.40625 -0.0390625 -2.40625 -0.0390625 0 0 Z " fill="#008171" transform="translate(642.40625,648.0390625)"/>
<path d="M0 0 C0.97632348 3.11178271 0.97329343 5.28184894 0.36328125 8.47265625 C0.20005371 9.35896729 0.03682617 10.24527832 -0.13134766 11.15844727 C-0.31487793 12.11678467 -0.4984082 13.07512207 -0.6875 14.0625 C-2.33083238 23.04167389 -3.80531454 32.02997213 -5.125 41.0625 C-5.28315186 42.14217041 -5.44130371 43.22184082 -5.60424805 44.33422852 C-5.9155888 46.47251488 -6.22482541 48.61110865 -6.53198242 50.75 C-6.84784074 52.94337816 -7.16842849 55.13607974 -7.4934082 57.328125 C-8.41714603 63.62336015 -9.24814251 69.9205932 -9.96484375 76.2421875 C-10.04496704 76.94780319 -10.12509033 77.65341888 -10.2076416 78.38041687 C-10.53366962 81.26509072 -10.85794611 84.14992081 -11.17456055 87.03564453 C-12.32380736 97.46508886 -13.92793364 107.71333011 -16 118 C-19.01429698 116.52985124 -21.652914 114.90241873 -24.375 112.9375 C-27.45631462 110.7418327 -30.5631143 108.62265872 -33.765625 106.609375 C-34.4045166 106.20726807 -35.0434082 105.80516113 -35.70166016 105.39086914 C-36.9736598 104.59502169 -38.2493445 103.80503095 -39.52880859 103.02124023 C-41.05293117 102.0659684 -42.53159577 101.03888542 -44 100 C-44 99.34 -44 98.68 -44 98 C-44.71027344 97.73960937 -45.42054688 97.47921875 -46.15234375 97.2109375 C-49.1741505 95.92594423 -51.79411406 94.3884503 -54.5625 92.625 C-55.95662109 91.74714844 -55.95662109 91.74714844 -57.37890625 90.8515625 C-59.87730317 89.08667407 -61.91389061 87.22845567 -64 85 C-62.54334852 79.83463719 -59.3712684 77.14308991 -55.5 73.6875 C-54.90574219 73.13771484 -54.31148438 72.58792969 -53.69921875 72.02148438 C-49.27308812 68 -49.27308812 68 -47 68 C-47 67.34 -47 66.68 -47 66 C-45.34268592 64.65505926 -43.67426362 63.32378128 -42 62 C-40.5564982 60.39581154 -39.16215766 58.74640684 -37.8125 57.0625 C-37.04035156 56.09957031 -36.26820313 55.13664063 -35.47265625 54.14453125 C-27.50991269 44.08442257 -27.50991269 44.08442257 -20 33.6875 C-19.34 32.800625 -18.68 31.91375 -18 31 C-17.34 31 -16.68 31 -16 31 C-15.62101562 30.17435547 -15.62101562 30.17435547 -15.234375 29.33203125 C-13.78824473 26.59994337 -12.04585127 24.20377997 -10.25 21.6875 C-5.63786347 14.87870721 -2.77934253 7.70635882 0 0 Z " fill="#000000" transform="translate(328,498)"/>
<path d="M0 0 C6.20629156 3.37535155 8.62393633 8.61273206 11 15 C11.495 15.99 11.495 15.99 12 17 C13.02601242 32.21260715 13.02601242 32.21260715 9 38 C4.3364312 41.4976766 -0.17597142 42.74124 -6 42 C-12.18841771 39.9371941 -17.20629491 36.96388412 -20.640625 31.2890625 C-23.3311697 24.77918136 -23.28502792 16.83921923 -21.05078125 10.1640625 C-16.36267166 1.26109097 -9.88292424 -2.61461723 0 0 Z " fill="#000000" transform="translate(257,742)"/>
<path d="M0 0 C0.66 0.33 1.32 0.66 2 1 C2.67231508 3.60674891 3.23572756 6.17365161 3.75 8.8125 C5.38904626 16.81046126 7.56502306 24.53130657 10.15722656 32.27270508 C10.53766113 33.46029419 10.53766113 33.46029419 10.92578125 34.671875 C11.15692627 35.3637793 11.38807129 36.05568359 11.6262207 36.76855469 C12.57644203 42.44133256 10.18258984 47.33171943 7.83984375 52.3671875 C7.53051407 53.04677521 7.22118439 53.72636292 6.90248108 54.42654419 C5.92082623 56.579155 4.92935175 58.72707148 3.9375 60.875 C3.2669224 62.34084604 2.59699368 63.8069891 1.92773438 65.2734375 C0.29264328 68.85243838 -1.35126502 72.42726519 -3 76 C-3.66 76 -4.32 76 -5 76 C-5.36351562 74.88625 -5.72703125 73.7725 -6.1015625 72.625 C-8.91840116 64.0544778 -11.83515959 55.54691985 -15.08251953 47.12890625 C-18.29073023 38.77141923 -18.29073023 38.77141923 -16.67651367 34.48828125 C-16.01911607 33.09059041 -15.34873043 31.69896127 -14.66796875 30.3125 C-14.31616043 29.57298096 -13.96435211 28.83346191 -13.60188293 28.0715332 C-12.47472105 25.70891988 -11.3313709 23.35456175 -10.1875 21 C-9.42796558 19.41457508 -8.6694895 17.82864268 -7.91210938 16.2421875 C-5.31318319 10.80951853 -2.71339483 5.37668558 0 0 Z " fill="#005D53" transform="translate(406,673)"/>
<path d="M0 0 C7.22490624 7.04028342 12.05976755 14.68888874 16.375 23.75 C16.72087158 24.4709082 17.06674316 25.19181641 17.4230957 25.93457031 C21.85322071 35.52892364 21.85322071 35.52892364 20.28515625 40.0703125 C19.88167969 40.74835937 19.47820312 41.42640625 19.0625 42.125 C12.98777943 53.37005859 7.17738698 66.16648196 6 79 C3.26895337 77.63447668 3.04376702 75.84422213 2.09570312 73.06835938 C1.87849609 72.40642578 1.66128906 71.74449219 1.4375 71.0625 C1.21642578 70.43537109 0.99535156 69.80824219 0.76757812 69.16210938 C-2.62245763 58.99200211 -2.19871721 48.29149888 -2.1875 37.6875 C-2.1882251 36.98866699 -2.1889502 36.28983398 -2.18969727 35.56982422 C-2.18833217 23.62521529 -1.49515483 11.85444184 0 0 Z " fill="#005C52" transform="translate(326,628)"/>
<path d="M0 0 C3.91757822 4.8316798 4.3132983 9.48962435 4.19140625 15.52734375 C3.55945455 21.0900791 1.01280449 24.81709982 -2.3125 29.1875 C-6.71322829 32.51249471 -10.98687994 33.7209209 -16.49609375 33.00390625 C-22.40813387 31.39878237 -25.73920598 28.33073042 -29.125 23.3125 C-30.85408669 19.85432662 -30.47693678 16.10061948 -30.125 12.3125 C-27.96063325 6.38896995 -24.45890876 2.69379294 -19.0625 -0.5 C-13.02819459 -2.80762449 -5.69217082 -3.07377224 0 0 Z " fill="#005F55" transform="translate(496.125,302.6875)"/>
<path d="M0 0 C10.66699028 0.03198498 17.62703743 1.90870638 27 7 C25.94242175 12.9072807 24.02156259 18.50369093 22.09155273 24.17529297 C21.6556859 25.4745959 21.23213659 26.77809631 20.82104492 28.08544922 C17.40921182 38.91022802 17.40921182 38.91022802 14.01611328 41.53417969 C10.64176062 42.86889929 7.60814348 43 4 43 C3.67386719 41.82824219 3.34773438 40.65648437 3.01171875 39.44921875 C2.80119873 38.69302246 2.59067871 37.93682617 2.3737793 37.15771484 C1.91419799 35.50348373 1.45603969 33.84885665 0.99926758 32.19384766 C0.02506153 28.66620357 -0.95695472 25.14477339 -2 21.63671875 C-5.63054011 9.29637329 -5.63054011 9.29637329 -3.09765625 4.17578125 C-2 2.5 -2 2.5 0 0 Z " fill="#005D53" transform="translate(348,737)"/>
<path d="M0 0 C1.45019531 -0.01836914 1.45019531 -0.01836914 2.9296875 -0.03710938 C4.31414062 -0.04000977 4.31414062 -0.04000977 5.7265625 -0.04296875 C6.57041504 -0.04707764 7.41426758 -0.05118652 8.28369141 -0.05541992 C10.375 0.1875 10.375 0.1875 12.375 2.1875 C13.29911399 8.19424091 11.0614805 13.90073623 8.375 19.1875 C5.64591471 22.81223104 2.59064439 25.9936936 -0.625 29.1875 C-1.56279297 30.17943359 -1.56279297 30.17943359 -2.51953125 31.19140625 C-11.54865403 40.62816437 -11.54865403 40.62816437 -17.375 41.6875 C-19.625 41.1875 -19.625 41.1875 -21.5 40.125 C-23.28140753 37.05702036 -22.26128614 34.61099608 -21.625 31.1875 C-20.87902539 28.55512195 -20.10207245 25.97119269 -19.25 23.375 C-18.80033848 21.97279816 -18.35111959 20.5704543 -17.90234375 19.16796875 C-17.68433105 18.49169434 -17.46631836 17.81541992 -17.24169922 17.11865234 C-15.97738693 13.159543 -14.80336359 9.17285978 -13.625 5.1875 C-14.285 5.8475 -14.945 6.5075 -15.625 7.1875 C-15.295 5.2075 -14.965 3.2275 -14.625 1.1875 C-9.78813902 -0.211102 -4.99807344 0.00335892 0 0 Z " fill="#005C52" transform="translate(370.625,678.8125)"/>
<path d="M0 0 C0.05534912 0.76143311 0.11069824 1.52286621 0.16772461 2.30737305 C0.42108359 5.76766086 0.67924193 9.22757452 0.9375 12.6875 C1.06801758 14.48477539 1.06801758 14.48477539 1.20117188 16.31835938 C1.33168945 18.05375977 1.33168945 18.05375977 1.46484375 19.82421875 C1.543396 20.88729248 1.62194824 21.95036621 1.70288086 23.0456543 C1.9463541 25.95764364 1.9463541 25.95764364 2.52954102 28.61645508 C3.22061737 32.11774125 3.06039499 35.43669562 3 39 C1.18815092 38.25508101 -0.62366083 37.51007114 -2.43530273 36.76464844 C-3.98927462 36.12542363 -5.54347718 35.48675934 -7.09790039 34.84863281 C-11.55895686 33.01490454 -16.00238175 31.14579565 -20.4375 29.25 C-24.92811642 27.35823479 -29.42210665 25.90143001 -34.13671875 24.67578125 C-36 24 -36 24 -37 22 C-7.76102941 0 -7.76102941 0 0 0 Z " fill="#005C52" transform="translate(404,430)"/>
<path d="M0 0 C4.58262049 4.25529046 8.12242833 9.04639966 11.75 14.125 C12.33910156 14.93582031 12.92820312 15.74664063 13.53515625 16.58203125 C17.87059152 22.61177455 17.87059152 22.61177455 19 26 C17.93106973 28.57641054 16.79948439 30.97994067 15.51953125 33.44921875 C15.15027023 34.18066605 14.78100922 34.91211334 14.40055847 35.66572571 C13.21383047 38.01116892 12.01345072 40.34931266 10.8125 42.6875 C10.02186925 44.24367497 9.23214503 45.80031086 8.44335938 47.35742188 C6.97803593 50.24729765 5.5072587 53.13425397 4.03051758 56.01831055 C1.99442784 59.99940294 -0.00530402 63.99802057 -2 68 C-2.66 67.67 -3.32 67.34 -4 67 C-4.21366224 52.34441378 -4.14600123 37.97081067 -2.29101562 23.42431641 C-1.72748701 18.72982045 -1.31176187 14.0201747 -0.875 9.3125 C-0.70581718 7.51691879 -0.5365546 5.72134509 -0.3671875 3.92578125 C-0.24601562 2.63027344 -0.12484375 1.33476563 0 0 Z " fill="#005C52" transform="translate(363,579)"/>
<path d="M0 0 C6.8232296 2.56568306 12.82701054 6.48101346 18.875 10.5 C18.1669744 13.6090191 17.17031749 16.5090148 16.02734375 19.484375 C15.66962891 20.41894531 15.31191406 21.35351562 14.94335938 22.31640625 C14.57017578 23.28449219 14.19699219 24.25257813 13.8125 25.25 C13.43544922 26.23355469 13.05839844 27.21710937 12.66992188 28.23046875 C11.74033893 30.65444454 10.80862785 33.07757992 9.875 35.5 C5.73334574 31.42121715 1.76447746 27.19960083 -2.1875 22.9375 C-3.40686131 21.62305677 -4.62689501 20.30923692 -5.84765625 18.99609375 C-6.41371582 18.38620605 -6.97977539 17.77631836 -7.56298828 17.14794922 C-8.85746938 15.7822494 -10.20215604 14.46433954 -11.55859375 13.16015625 C-13.125 11.5 -13.125 11.5 -13.125 9.5 C-13.785 9.5 -14.445 9.5 -15.125 9.5 C-16.75 8.125 -16.75 8.125 -18.125 6.5 C-18.125 5.84 -18.125 5.18 -18.125 4.5 C-18.764375 4.231875 -19.40375 3.96375 -20.0625 3.6875 C-22.125 2.5 -22.125 2.5 -23.125 -0.5 C-16.91925294 -3.60287353 -6.45940531 -1.96027407 0 0 Z " fill="#005C52" transform="translate(391.125,548.5)"/>
<path d="M0 0 C3.14806222 0.44381496 6.29288019 0.90746539 9.4375 1.375 C10.78424805 1.56449219 10.78424805 1.56449219 12.15820312 1.7578125 C13.01220703 1.88671875 13.86621094 2.015625 14.74609375 2.1484375 C15.53685303 2.26364746 16.3276123 2.37885742 17.14233398 2.49755859 C17.75536377 2.66336426 18.36839355 2.82916992 19 3 C21.07004783 7.14009566 18.11891083 12.81886715 16.73583984 17.01269531 C15.05634165 21.54856634 12.76396839 25.78006773 10.48828125 30.0390625 C9.28239868 32.43816746 8.47867558 34.38324014 8 37 C1.80759538 36.31195504 -4.01955594 34.71951285 -10 33 C-3.66225392 10.40510967 -3.66225392 10.40510967 0 0 Z " fill="#000201" transform="translate(738,368)"/>
<path d="M0 0 C5.71627355 0.5221596 10.0278269 2.77049341 15 5.4375 C16.24608032 6.09987671 16.24608032 6.09987671 17.51733398 6.77563477 C36.33123047 16.9968457 36.33123047 16.9968457 41 24 C28.61165149 26.69091177 16.71455843 28.25316599 4 28 C1.73687125 24.3105296 1.35281444 20.46416673 0.875 16.25 C0.78863281 15.57195312 0.70226562 14.89390625 0.61328125 14.1953125 C0.0431925 9.43552392 -0.07522318 4.79279099 0 0 Z " fill="#005D53" transform="translate(355,474)"/>
<path d="M0 0 C2.91247159 2.91247159 2.99563027 6.32578924 3.625 10.25 C3.75688721 11.05034668 3.88877441 11.85069336 4.0246582 12.67529297 C5.12420708 19.82982366 5.31421186 26.76148978 5 34 C0.87636401 32.47873354 -2.81634472 30.50054237 -6.625 28.3125 C-7.23746582 27.9609082 -7.84993164 27.60931641 -8.48095703 27.24707031 C-13.25162907 24.48660347 -17.88509892 21.5382767 -22.51171875 18.54296875 C-25.90469659 16.4390029 -29.39093917 14.70238719 -33 13 C-26.97610388 6.06645514 -16.57986943 4.4356249 -7.91015625 3.5546875 C-4.71912645 2.94646437 -2.66737278 1.81754683 0 0 Z " fill="#005C52" transform="translate(454,509)"/>
<path d="M0 0 C3.13050011 2.57396675 5.73833771 5.10031657 7 9 C7.65290305 16.18193352 5.34783338 19.44466009 0.9375 24.75 C-1.94318708 28.12179659 -3.1583503 28.91583503 -7.75 29.375 C-11.25543336 29.31774247 -12.14265841 28.91117495 -15.3125 26.9375 C-19.62064245 22.22860011 -21.30823238 18.23568821 -21.0625 11.875 C-20.51903101 8.02396702 -20.08485865 7.09496087 -17.375 4.0625 C-11.35169826 0.38159338 -7.07766725 -2.09708659 0 0 Z " fill="#000100" transform="translate(218,665)"/>
<path d="M0 0 C2.9375 1.0625 2.9375 1.0625 3.9375 2.0625 C4.38458453 8.14284955 3.1259365 13.47449179 1.5 19.3125 C1.28923828 20.2096875 1.07847656 21.106875 0.86132812 22.03125 C-0.92920935 28.41033818 -0.92920935 28.41033818 -3.99243164 30.1730957 C-6.25 30.87890625 -6.25 30.87890625 -8.64428711 31.44287109 C-12.67733349 32.47627561 -16.05893235 34.65447571 -19.625 36.75 C-20.34751953 37.16572266 -21.07003906 37.58144531 -21.81445312 38.00976562 C-23.56800223 39.02008862 -25.31587989 40.04024504 -27.0625 41.0625 C-28.31575185 37.30274446 -27.61930276 36.32465344 -26.11328125 32.73046875 C-25.45875977 31.16135742 -25.45875977 31.16135742 -24.79101562 29.56054688 C-24.32373047 28.46806641 -23.85644531 27.37558594 -23.375 26.25 C-22.92705078 25.16912109 -22.47910156 24.08824219 -22.01757812 22.97460938 C-18.46646126 14.55427549 -11.44166506 -1.56022705 0 0 Z " fill="#005C52" transform="translate(412.0625,618.9375)"/>
<path d="M0 0 C4.32882668 1.88806918 5.97683341 4.69386816 8.25 8.6875 C8.82717773 9.67713745 8.82717773 9.67713745 9.41601562 10.68676758 C12.18691406 15.47745143 14.86850516 20.3189929 17.5 25.1875 C17.83805664 25.81035889 18.17611328 26.43321777 18.52441406 27.07495117 C20.12704271 30.09666025 21.16214003 32.64856011 22 36 C12.43 36.33 2.86 36.66 -7 37 C-6.5875 32.565625 -6.175 28.13125 -5.75 23.5625 C-5.62979492 22.18263916 -5.50958984 20.80277832 -5.38574219 19.38110352 C-4.66984729 12.24639592 -3.515115 6.29492533 0 0 Z " fill="#005D53" transform="translate(441,448)"/>
<path d="M0 0 C3.21483277 0.46789045 5.04632177 1.60221278 7.4765625 3.703125 C8.13906006 4.26547852 8.80155762 4.82783203 9.48413086 5.40722656 C10.19061768 6.0153418 10.89710449 6.62345703 11.625 7.25 C18.61615711 13.15292902 25.81706828 18.62768586 33.28564453 23.91113281 C34.00478027 24.41999023 34.72391602 24.92884766 35.46484375 25.453125 C36.100271 25.89817383 36.73569824 26.34322266 37.39038086 26.80175781 C39 28 39 28 41 30 C40.42307692 36.57692308 40.42307692 36.57692308 39 38 C28.96653586 37.37290849 21.44732794 32.4342723 14 26 C13.38125 25.47664063 12.7625 24.95328125 12.125 24.4140625 C5.53172071 18.38003457 -0.1863801 10.04167919 -1 1 C-0.67 0.67 -0.34 0.34 0 0 Z " fill="#000302" transform="translate(234,188)"/>
<path d="M0 0 C2.4765625 1.390625 2.4765625 1.390625 5 4 C5.67311766 7.25979077 5.51506102 10.43683253 5.375 13.75 C5.35373047 15.05324219 5.35373047 15.05324219 5.33203125 16.3828125 C5.2312454 20.85770408 4.87340235 25.20521114 4.25878906 29.64160156 C3.91463166 32.77797944 3.76511009 35.91142554 3.60546875 39.0625 C3.53650391 40.35414063 3.46753906 41.64578125 3.39648438 42.9765625 C3.28932085 44.99035398 3.18734025 47.00374161 3.10131836 49.01855469 C2.37535814 65.62464186 2.37535814 65.62464186 -4 72 C-4.99 72 -5.98 72 -7 72 C-7.59286442 47.75843266 -4.68128885 23.74973874 0 0 Z " fill="#005A51" transform="translate(335,526)"/>
<path d="M0 0 C2 3 2 3 3.6875 6.5625 C5.86324086 11.02152784 8.67203012 14.91204088 11.609375 18.8984375 C13 21 13 21 13 23 C13.57878906 23.2784375 14.15757812 23.556875 14.75390625 23.84375 C17.59785213 25.30776388 20.22519811 27.03551686 22.90234375 28.78125 C27.53192924 31.47106503 31.47177805 32.30131988 36.8125 32.625 C37.97394531 32.69976562 39.13539063 32.77453125 40.33203125 32.8515625 C41.21246094 32.90054688 42.09289062 32.94953125 43 33 C37.85843938 38.14156062 29.241072 39.2825054 22.25 39.4375 C16.82400231 39.24255398 12.8112848 38.53685926 8 36 C2.57224205 30.05735592 -2.48702865 21.17021122 -3.296875 13.0078125 C-2.88434756 8.48376156 -1.66853572 4.22695716 0 0 Z " fill="#000404" transform="translate(758,227)"/>
<path d="M0 0 C0.66 0.33 1.32 0.66 2 1 C1.32453125 1.72445312 0.6490625 2.44890625 -0.046875 3.1953125 C-0.93890625 4.16210938 -1.8309375 5.12890625 -2.75 6.125 C-3.63171875 7.07632813 -4.5134375 8.02765625 -5.421875 9.0078125 C-8.06422839 11.89862918 -8.06422839 11.89862918 -9.87890625 15.1640625 C-12.49340465 18.65969019 -15.22627344 19.78794116 -19.1875 21.25 C-25.44492288 23.76806302 -31.26483639 26.67576521 -37.0625 30.125 C-37.75174561 30.53266602 -38.44099121 30.94033203 -39.15112305 31.36035156 C-43.59506512 34.03676145 -47.81192484 36.93927407 -52 40 C-50.89258162 30.6824109 -47.79087889 24.96738817 -40.53125 19.05078125 C-35.49658214 15.35653449 -29.98628701 13.46077823 -24.125 11.4375 C-11.12850988 7.38426323 -11.12850988 7.38426323 0 0 Z " fill="#000403" transform="translate(510,86)"/>
<path d="M0 0 C4.74754891 4.41785802 7.68273428 9.22665433 10.9375 14.84375 C13.5780996 18.88466757 16.77943858 21.87840302 20.3125 25.125 C22.80128764 27.78742399 24.78448845 30.46083712 26.875 33.4375 C30.17838025 38.09112122 33.5423988 41.47106571 38 45 C38 45.33 38 45.66 38 46 C31.9185629 46.56078826 27.26049432 46.49965345 22.203125 42.87109375 C10.36289756 32.81529775 0.33101568 21.97566463 -1.2109375 5.78515625 C-1.25 3.875 -1.25 3.875 -1 1 C-0.67 0.67 -0.34 0.34 0 0 Z " fill="#000403" transform="translate(561,660)"/>
<path d="M0 0 C3.55173815 0.59195636 4.28727636 0.80769307 6.375 3.5625 C8.32888865 12.14332768 4.41360017 20.4084187 0.140625 27.65625 C-1.93540627 30.51416318 -3.25372746 31.49567094 -6.75 32.125 C-9.96279328 31.49641001 -10.73219887 31.15755778 -12.625 28.5625 C-13.85256423 20.57780296 -12.84734311 13.43415644 -8.625 6.5625 C-8.06425781 5.63050781 -8.06425781 5.63050781 -7.4921875 4.6796875 C-5.22409565 1.4502852 -3.9244586 0.60896771 0 0 Z " fill="#005D53" transform="translate(685.625,368.4375)"/>
<path d="M0 0 C10.20796675 5.43072845 15.47980311 18.33076374 18.83203125 28.81640625 C19.79611786 32.37882384 20.18734766 35.60739837 19.89453125 39.31640625 C16.86824146 35.49986868 14.73787599 31.3760459 12.4921875 27.0703125 C5.30764242 14.68619445 -6.36573774 9.37436397 -19.10546875 4.31640625 C-13.68385824 -1.28592461 -7.6440422 -2.48183188 0 0 Z " fill="#005A51" transform="translate(604.10546875,464.68359375)"/>
<path d="M0 0 C5.83031046 -0.25740885 9.84102569 0.41170781 15.375 2.5 C24.25616548 5.61760566 32.69425335 5.4846743 42 5 C41.8125 6.8125 41.8125 6.8125 41 9 C35.37949591 13.49844338 28.82412376 12.64717717 22 12 C13.88493247 10.21372478 4.7729725 7.15945875 0 0 Z " fill="#000505" transform="translate(111,505)"/>
<path d="M0 0 C4.35223242 0.09513076 6.88387871 1.58358235 10.25 4.375 C11.67041821 7.21583641 11.56452272 9.22977278 11.25 12.375 C9.75 14.75 9.75 14.75 7.25 16.375 C4.47025105 16.93322827 2.02842373 16.94669213 -0.75 16.375 C-3.6627381 14.22877193 -5.63164992 11.83171844 -6.75 8.375 C-6.31070618 2.8838273 -5.86738089 0.58673809 0 0 Z " fill="#005C52" transform="translate(512.75,807.625)"/>
<path d="M0 0 C1.32 0 2.64 0 4 0 C4.99 7.59 5.98 15.18 7 23 C2.23388525 21.41129508 -1.15348434 19.90790939 -5.375 17.375 C-6.43460937 16.74335938 -7.49421875 16.11171875 -8.5859375 15.4609375 C-9.78089844 14.73777344 -9.78089844 14.73777344 -11 14 C-9.57442379 10.82096506 -7.8226848 8.46341568 -5.5 5.875 C-4.8915625 5.19179688 -4.283125 4.50859375 -3.65625 3.8046875 C-2.46695076 2.50880012 -1.24373566 1.24373566 0 0 Z " fill="#005A50" transform="translate(488,490)"/>
<path d="M0 0 C4.0638692 -0.54705932 6.39529053 -0.30852524 10.0625 1.5625 C18.71139241 8.73924051 18.71139241 8.73924051 19.375 13.9375 C19.25125 14.618125 19.1275 15.29875 19 16 C12.34342149 16.72354114 7.62572922 14.49149279 2 11 C-0.85256774 8.53032726 -1.7133498 6.82200262 -2 3 C-1.34 2.01 -0.68 1.02 0 0 Z " fill="#000303" transform="translate(449,818)"/>
<path d="M0 0 C-0.42081657 4.9095267 -2.4219834 6.75573529 -6 10 C-8.08215332 11.43905787 -10.21010019 12.81371864 -12.375 14.125 C-13.99535156 15.11886719 -13.99535156 15.11886719 -15.6484375 16.1328125 C-21.24555094 19.25101789 -26.00150589 21.3259273 -32.4375 21.6875 C-34.01337891 21.78611328 -34.01337891 21.78611328 -35.62109375 21.88671875 C-36.40613281 21.92410156 -37.19117187 21.96148438 -38 22 C-35.85176353 19.85176353 -33.93085513 18.79474281 -31.25 17.375 C-17.3317218 10.08353186 -17.3317218 10.08353186 -4.55078125 1.03125 C-3 0 -3 0 0 0 Z " fill="#000807" transform="translate(157,519)"/>
<path d="M0 0 C0.495 0.99 0.495 0.99 1 2 C0.24976563 2.29132813 -0.50046875 2.58265625 -1.2734375 2.8828125 C-12.5717553 7.40783147 -21.68427708 13.1906493 -31 21 C-31.33 20.34 -31.66 19.68 -32 19 C-25.38854044 8.89467969 -13.17715876 -3.84333797 0 0 Z " fill="#00564D" transform="translate(742,507)"/>
<path d="M0 0 C3 0.25 3 0.25 5 2.25 C5.32752234 4.96454956 5.1308425 7.50230759 5 10.25 C4 11.25 4 11.25 0.625 11.5625 C-3 11.25 -3 11.25 -5 9.5625 C-6.26326211 6.64120636 -6.02016252 5.23201353 -5 2.25 C-3 0.25 -3 0.25 0 0 Z " fill="#00F2D4" transform="translate(483,312.75)"/>
<path d="M0 0 C1.65 0.33 3.3 0.66 5 1 C5.26218749 4.14624993 5.24754367 5.61837017 3.5 8.3125 C2.7575 9.1478125 2.7575 9.1478125 2 10 C0.68 9.67 -0.64 9.34 -2 9 C-2.25 3.375 -2.25 3.375 0 0 Z " fill="#00E5C9" transform="translate(679,380)"/>
<path d="M0 0 C-2.72478774 3.36591427 -6.06856792 4.44226276 -10 6 C-9.67 4.35 -9.34 2.7 -9 1 C-2.25 -1.125 -2.25 -1.125 0 0 Z " fill="#005249" transform="translate(539,431)"/>
<path d="M0 0 C0.33 0.66 0.66 1.32 1 2 C1.66 2.33 2.32 2.66 3 3 C2.1875 6.4375 2.1875 6.4375 1 10 C0.01 10.33 -0.98 10.66 -2 11 C-1.34 7.37 -0.68 3.74 0 0 Z " fill="#00524A" transform="translate(728,390)"/>
</svg>
